<?xml version="1.0" encoding="utf-8"?>
<!-- Generator: Adobe Illustrator 26.1.0, SVG Export Plug-In . SVG Version: 6.00 Build 0)  -->
<svg version="1.1" id="Layer_1" xmlns="http://www.w3.org/2000/svg" xmlns:xlink="http://www.w3.org/1999/xlink" x="0px" y="0px"
	 viewBox="0 0 500 500" style="enable-background:new 0 0 500 500;" xml:space="preserve">
<style type="text/css">
	.st0{fill:#EBEBEB;}
	.st1{fill:#FAFAFA;}
	.st2{fill:#F0F0F0;}
	.st3{fill:#E0E0E0;}
	.st4{fill:#F5F5F5;}
	.st5{fill:#E6E6E6;}
	.st6{fill:#EB6EB5;}
	.st7{opacity:0.2;fill:#FFFFFF;enable-background:new    ;}
	.st8{opacity:0.3;fill:#FFFFFF;enable-background:new    ;}
	.st9{fill:#263238;}
	.st10{opacity:0.2;enable-background:new    ;}
	.st11{opacity:0.6;}
	.st12{fill:url(#SVGID_1_);}
	.st13{opacity:0.6;fill:#FFFFFF;enable-background:new    ;}
	.st14{opacity:0.1;fill:#FFFFFF;enable-background:new    ;}
	.st15{fill:#FFFFFF;}
	.st16{opacity:0.4;}
	.st17{opacity:0.5;}
	.st18{fill:url(#SVGID_00000129915400761508481230000018314779978658671291_);}
	.st19{fill:#FDB75F;}
	.st20{opacity:0.7;fill:#FFFFFF;enable-background:new    ;}
	.st21{fill:#FE877A;}
	.st22{opacity:0.3;}
	.st23{fill:#B65B52;}
	.st24{fill:#B55B52;}
	.st25{fill:#407BFF;}
	.st26{opacity:0.4;fill:url(#SVGID_00000114042180337787558490000004595667813519870119_);enable-background:new    ;}
	.st27{opacity:0.4;fill:url(#SVGID_00000147942371968358634730000015258142005452187012_);enable-background:new    ;}
	.st28{fill:#A02724;}
	.st29{opacity:0.5;fill:#FFFFFF;enable-background:new    ;}
	.st30{opacity:0.1;enable-background:new    ;}
	.st31{fill:url(#SVGID_00000051373090359809654680000014473432675168773792_);}
	.st32{fill:url(#SVGID_00000057149742262324267880000002735964643865459616_);}
</style>
<g id="freepik--background-complete--inject-33">
	<rect y="382.4" class="st0" width="500" height="0.2"/>
	<rect x="416.8" y="398.5" class="st0" width="33.1" height="0.2"/>
	<rect x="322.5" y="401.2" class="st0" width="8.7" height="0.2"/>
	<rect x="396.6" y="389.2" class="st0" width="19.2" height="0.2"/>
	<rect x="52.5" y="390.9" class="st0" width="43.2" height="0.2"/>
	<rect x="104.6" y="390.9" class="st0" width="6.3" height="0.2"/>
	<rect x="131.5" y="395.1" class="st0" width="93.7" height="0.2"/>
	<path class="st0" d="M237,337.8H43.9c-3.1,0-5.7-2.6-5.7-5.7V60.7c0-3.1,2.6-5.7,5.7-5.7H237c3.2,0,5.7,2.6,5.7,5.7c0,0,0,0,0,0
		v271.4C242.7,335.2,240.2,337.8,237,337.8z M43.9,55.2c-3,0-5.5,2.4-5.5,5.5v271.4c0,3,2.4,5.5,5.5,5.5H237c3,0,5.5-2.4,5.5-5.5
		V60.7c0-3-2.4-5.5-5.5-5.5H43.9z"/>
	<path class="st0" d="M453.3,337.8H260.2c-3.2,0-5.7-2.6-5.7-5.7V60.7c0-3.1,2.6-5.7,5.7-5.7h193.1c3.1,0,5.7,2.5,5.7,5.7v271.4
		C459,335.2,456.5,337.8,453.3,337.8z M260.2,55.2c-3,0-5.5,2.4-5.5,5.5v271.4c0,3,2.4,5.5,5.5,5.5h193.1c3,0,5.5-2.4,5.5-5.5V60.7
		c0-3-2.4-5.5-5.5-5.5H260.2z"/>
	<rect x="79.3" y="102.7" class="st0" width="169.5" height="189.9"/>
	<rect x="82.7" y="105.7" class="st1" width="166.2" height="183.5"/>
	<polygon class="st2" points="88.8,203.1 88.8,190.2 92.5,190.2 92.5,181.6 97.4,181.6 97.4,168.8 98.6,168.8 98.6,181.6 
		103.5,181.6 103.5,190.2 107.2,190.2 107.2,203.1 114,203.1 114,206.8 117.1,206.8 117.1,220.9 117.7,220.9 117.7,200.7 
		119.5,200.7 119.5,213.6 121.3,213.6 121.3,182.9 122.6,182.9 122.6,195.8 127.5,195.8 127.5,191.5 129.3,191.5 129.3,173.7 
		133,173.7 133,155.9 134.2,155.9 134.2,158.3 159.4,158.3 159.4,150.9 163.7,150.9 163.7,122.7 165.6,122.7 165.6,150.9 
		171.7,150.9 171.7,158.3 174.1,158.3 174.1,195.1 187,195.1 187,184.1 182.7,184.1 182.7,182.3 187,182.3 187,179.2 199.3,179.2 
		199.3,150.9 202.4,150.9 202.4,146.6 217.1,146.6 217.1,150.9 219,150.9 219,190.2 225.7,190.2 225.7,208 229.4,208 229.4,193.9 
		232.5,193.9 232.5,190.2 239.2,190.2 239.2,177.3 242.9,177.3 242.9,168.8 247.2,168.8 247.2,155.9 248.9,155.9 248.9,289.2 
		82.7,289.2 82.7,203.1 	"/>
	<rect x="148.3" y="160.2" class="st1" width="1.7" height="1.7"/>
	<rect x="148.3" y="163.1" class="st1" width="1.7" height="1.7"/>
	<rect x="148.3" y="174.8" class="st1" width="1.7" height="1.7"/>
	<rect x="148.3" y="177.7" class="st1" width="1.7" height="1.7"/>
	<rect x="148.3" y="180.6" class="st1" width="1.7" height="1.7"/>
	<rect x="148.3" y="189.4" class="st1" width="1.7" height="1.7"/>
	<rect x="148.3" y="192.3" class="st1" width="1.7" height="1.7"/>
	<rect x="151" y="171.9" class="st1" width="1.7" height="1.7"/>
	<rect x="151" y="174.8" class="st1" width="1.7" height="1.7"/>
	<rect x="151" y="177.7" class="st1" width="1.7" height="1.7"/>
	<rect x="151" y="180.6" class="st1" width="1.7" height="1.7"/>
	<rect x="151" y="183.6" class="st1" width="1.7" height="1.7"/>
	<rect x="151" y="189.4" class="st1" width="1.7" height="1.7"/>
	<rect x="151" y="192.3" class="st1" width="1.7" height="1.7"/>
	<rect x="153.8" y="160.2" class="st1" width="1.7" height="1.7"/>
	<rect x="153.8" y="163.1" class="st1" width="1.7" height="1.7"/>
	<rect x="153.8" y="166.1" class="st1" width="1.7" height="1.7"/>
	<rect x="153.8" y="169" class="st1" width="1.7" height="1.7"/>
	<rect x="153.8" y="171.9" class="st1" width="1.7" height="1.7"/>
	<rect x="153.8" y="174.8" class="st1" width="1.7" height="1.7"/>
	<rect x="153.8" y="177.7" class="st1" width="1.7" height="1.7"/>
	<rect x="153.8" y="180.6" class="st1" width="1.7" height="1.7"/>
	<rect x="153.8" y="183.6" class="st1" width="1.7" height="1.7"/>
	<rect x="153.8" y="186.5" class="st1" width="1.7" height="1.7"/>
	<rect x="153.8" y="192.3" class="st1" width="1.7" height="1.7"/>
	<rect x="156.6" y="160.2" class="st1" width="1.7" height="1.7"/>
	<rect x="156.6" y="163.1" class="st1" width="1.7" height="1.7"/>
	<rect x="156.6" y="166.1" class="st1" width="1.7" height="1.7"/>
	<rect x="156.6" y="169" class="st1" width="1.7" height="1.7"/>
	<rect x="156.6" y="171.9" class="st1" width="1.7" height="1.7"/>
	<rect x="156.6" y="174.8" class="st1" width="1.7" height="1.7"/>
	<rect x="156.6" y="177.7" class="st1" width="1.7" height="1.7"/>
	<rect x="156.6" y="204" class="st1" width="1.7" height="1.7"/>
	<rect x="159.3" y="160.2" class="st1" width="1.7" height="1.7"/>
	<rect x="159.3" y="163.1" class="st1" width="1.7" height="1.7"/>
	<rect x="159.3" y="166.1" class="st1" width="1.7" height="1.7"/>
	<rect x="159.3" y="169" class="st1" width="1.7" height="1.7"/>
	<rect x="159.3" y="171.9" class="st1" width="1.7" height="1.7"/>
	<rect x="159.3" y="174.8" class="st1" width="1.7" height="1.7"/>
	<rect x="159.3" y="177.7" class="st1" width="1.7" height="1.7"/>
	<rect x="159.3" y="180.6" class="st1" width="1.7" height="1.7"/>
	<rect x="159.3" y="198.1" class="st1" width="1.7" height="1.7"/>
	<rect x="159.3" y="201.1" class="st1" width="1.7" height="1.7"/>
	<rect x="159.3" y="204" class="st1" width="1.7" height="1.7"/>
	<rect x="159.3" y="206.9" class="st1" width="1.7" height="1.7"/>
	<rect x="159.3" y="218.6" class="st1" width="1.7" height="1.7"/>
	<rect x="162.1" y="160.2" class="st1" width="1.7" height="1.7"/>
	<rect x="162.1" y="163.1" class="st1" width="1.7" height="1.7"/>
	<rect x="162.1" y="166.1" class="st1" width="1.7" height="1.7"/>
	<rect x="162.1" y="169" class="st1" width="1.7" height="1.7"/>
	<rect x="162.1" y="171.9" class="st1" width="1.7" height="1.7"/>
	<rect x="162.1" y="174.8" class="st1" width="1.7" height="1.7"/>
	<rect x="162.1" y="177.7" class="st1" width="1.7" height="1.7"/>
	<rect x="162.1" y="180.6" class="st1" width="1.7" height="1.7"/>
	<rect x="162.1" y="183.6" class="st1" width="1.7" height="1.7"/>
	<rect x="162.1" y="186.5" class="st1" width="1.7" height="1.7"/>
	<rect x="162.1" y="195.2" class="st1" width="1.7" height="1.7"/>
	<rect x="162.1" y="198.1" class="st1" width="1.7" height="1.7"/>
	<rect x="162.1" y="201.1" class="st1" width="1.7" height="1.7"/>
	<rect x="162.1" y="204" class="st1" width="1.7" height="1.7"/>
	<rect x="162.1" y="206.9" class="st1" width="1.7" height="1.7"/>
	<rect x="162.1" y="218.6" class="st1" width="1.7" height="1.7"/>
	<rect x="164.8" y="160.2" class="st1" width="1.7" height="1.7"/>
	<rect x="164.8" y="163.1" class="st1" width="1.7" height="1.7"/>
	<rect x="164.8" y="166.1" class="st1" width="1.7" height="1.7"/>
	<rect x="164.8" y="169" class="st1" width="1.7" height="1.7"/>
	<rect x="164.8" y="171.9" class="st1" width="1.7" height="1.7"/>
	<rect x="164.8" y="174.8" class="st1" width="1.7" height="1.7"/>
	<rect x="164.8" y="177.7" class="st1" width="1.7" height="1.7"/>
	<rect x="164.8" y="180.6" class="st1" width="1.7" height="1.7"/>
	<rect x="164.8" y="183.6" class="st1" width="1.7" height="1.7"/>
	<rect x="164.8" y="186.5" class="st1" width="1.7" height="1.7"/>
	<rect x="164.8" y="189.4" class="st1" width="1.7" height="1.7"/>
	<rect x="164.8" y="192.3" class="st1" width="1.7" height="1.7"/>
	<rect x="164.8" y="195.2" class="st1" width="1.7" height="1.7"/>
	<rect x="164.8" y="198.1" class="st1" width="1.7" height="1.7"/>
	<rect x="164.8" y="201.1" class="st1" width="1.7" height="1.7"/>
	<rect x="164.8" y="204" class="st1" width="1.7" height="1.7"/>
	<rect x="164.8" y="206.9" class="st1" width="1.7" height="1.7"/>
	<rect x="164.8" y="209.8" class="st1" width="1.7" height="1.7"/>
	<rect x="167.6" y="160.2" class="st1" width="1.7" height="1.7"/>
	<rect x="167.6" y="163.1" class="st1" width="1.7" height="1.7"/>
	<rect x="167.6" y="166.1" class="st1" width="1.7" height="1.7"/>
	<rect x="167.6" y="169" class="st1" width="1.7" height="1.7"/>
	<rect x="167.6" y="171.9" class="st1" width="1.7" height="1.7"/>
	<rect x="167.6" y="174.8" class="st1" width="1.7" height="1.7"/>
	<rect x="167.6" y="177.7" class="st1" width="1.7" height="1.7"/>
	<rect x="167.6" y="180.6" class="st1" width="1.7" height="1.7"/>
	<rect x="167.6" y="183.6" class="st1" width="1.7" height="1.7"/>
	<rect x="167.6" y="186.5" class="st1" width="1.7" height="1.7"/>
	<rect x="167.6" y="195.2" class="st1" width="1.7" height="1.7"/>
	<rect x="167.6" y="198.1" class="st1" width="1.7" height="1.7"/>
	<rect x="167.6" y="201.1" class="st1" width="1.7" height="1.7"/>
	<rect x="167.6" y="204" class="st1" width="1.7" height="1.7"/>
	<rect x="170.4" y="160.2" class="st1" width="1.7" height="1.7"/>
	<rect x="170.4" y="163.1" class="st1" width="1.7" height="1.7"/>
	<rect x="170.4" y="166.1" class="st1" width="1.7" height="1.7"/>
	<rect x="170.4" y="169" class="st1" width="1.7" height="1.7"/>
	<rect x="170.4" y="171.9" class="st1" width="1.7" height="1.7"/>
	<rect x="170.4" y="174.8" class="st1" width="1.7" height="1.7"/>
	<rect x="170.4" y="177.7" class="st1" width="1.7" height="1.7"/>
	<rect x="170.4" y="180.6" class="st1" width="1.7" height="1.7"/>
	<rect x="170.4" y="183.6" class="st1" width="1.7" height="1.7"/>
	<rect x="170.4" y="186.5" class="st1" width="1.7" height="1.7"/>
	<rect x="170.4" y="195.2" class="st1" width="1.7" height="1.7"/>
	<rect x="170.4" y="198.1" class="st1" width="1.7" height="1.7"/>
	<rect x="170.4" y="201.1" class="st1" width="1.7" height="1.7"/>
	<rect x="201.5" y="152.7" class="st1" width="1.7" height="1.7"/>
	<rect x="201.5" y="155.6" class="st1" width="1.7" height="1.7"/>
	<rect x="201.5" y="158.5" class="st1" width="1.7" height="1.7"/>
	<rect x="201.5" y="161.4" class="st1" width="1.7" height="1.7"/>
	<rect x="201.5" y="164.3" class="st1" width="1.7" height="1.7"/>
	<rect x="201.5" y="167.2" class="st1" width="1.7" height="1.7"/>
	<rect x="201.5" y="170.2" class="st1" width="1.7" height="1.7"/>
	<rect x="201.5" y="173.1" class="st1" width="1.7" height="1.7"/>
	<rect x="201.5" y="181.8" class="st1" width="1.7" height="1.7"/>
	<rect x="201.5" y="184.7" class="st1" width="1.7" height="1.7"/>
	<rect x="204.2" y="152.7" class="st1" width="1.7" height="1.7"/>
	<rect x="204.2" y="155.6" class="st1" width="1.7" height="1.7"/>
	<rect x="204.2" y="158.5" class="st1" width="1.7" height="1.7"/>
	<rect x="204.2" y="161.4" class="st1" width="1.7" height="1.7"/>
	<rect x="204.2" y="164.3" class="st1" width="1.7" height="1.7"/>
	<rect x="204.2" y="167.2" class="st1" width="1.7" height="1.7"/>
	<rect x="204.2" y="170.2" class="st1" width="1.7" height="1.7"/>
	<rect x="204.2" y="173.1" class="st1" width="1.7" height="1.7"/>
	<rect x="204.2" y="184.7" class="st1" width="1.7" height="1.7"/>
	<rect x="207" y="152.7" class="st1" width="1.7" height="1.7"/>
	<rect x="207" y="155.6" class="st1" width="1.7" height="1.7"/>
	<rect x="207" y="158.5" class="st1" width="1.7" height="1.7"/>
	<rect x="207" y="161.4" class="st1" width="1.7" height="1.7"/>
	<rect x="207" y="164.3" class="st1" width="1.7" height="1.7"/>
	<rect x="207" y="167.2" class="st1" width="1.7" height="1.7"/>
	<rect x="207" y="170.2" class="st1" width="1.7" height="1.7"/>
	<rect x="207" y="173.1" class="st1" width="1.7" height="1.7"/>
	<rect x="209.8" y="152.7" class="st1" width="1.7" height="1.7"/>
	<rect x="209.8" y="155.6" class="st1" width="1.7" height="1.7"/>
	<rect x="209.8" y="158.5" class="st1" width="1.7" height="1.7"/>
	<rect x="209.8" y="161.4" class="st1" width="1.7" height="1.7"/>
	<rect x="209.8" y="164.3" class="st1" width="1.7" height="1.7"/>
	<rect x="209.8" y="167.2" class="st1" width="1.7" height="1.7"/>
	<rect x="209.8" y="173.1" class="st1" width="1.7" height="1.7"/>
	<rect x="209.8" y="176" class="st1" width="1.7" height="1.7"/>
	<rect x="209.8" y="184.7" class="st1" width="1.7" height="1.7"/>
	<rect x="209.8" y="187.7" class="st1" width="1.7" height="1.7"/>
	<rect x="209.8" y="190.6" class="st1" width="1.7" height="1.7"/>
	<rect x="209.8" y="193.5" class="st1" width="1.7" height="1.7"/>
	<rect x="209.8" y="196.4" class="st1" width="1.7" height="1.7"/>
	<rect x="209.8" y="199.3" class="st1" width="1.7" height="1.7"/>
	<rect x="209.8" y="202.2" class="st1" width="1.7" height="1.7"/>
	<rect x="212.5" y="152.7" class="st1" width="1.7" height="1.7"/>
	<rect x="212.5" y="155.6" class="st1" width="1.7" height="1.7"/>
	<rect x="212.5" y="158.5" class="st1" width="1.7" height="1.7"/>
	<rect x="212.5" y="161.4" class="st1" width="1.7" height="1.7"/>
	<rect x="212.5" y="164.3" class="st1" width="1.7" height="1.7"/>
	<rect x="212.5" y="167.2" class="st1" width="1.7" height="1.7"/>
	<rect x="212.5" y="176" class="st1" width="1.7" height="1.7"/>
	<rect x="212.5" y="178.9" class="st1" width="1.7" height="1.7"/>
	<rect x="212.5" y="181.8" class="st1" width="1.7" height="1.7"/>
	<rect x="212.5" y="184.7" class="st1" width="1.7" height="1.7"/>
	<rect x="212.5" y="187.7" class="st1" width="1.7" height="1.7"/>
	<rect x="212.5" y="190.6" class="st1" width="1.7" height="1.7"/>
	<rect x="212.5" y="193.5" class="st1" width="1.7" height="1.7"/>
	<rect x="212.5" y="196.4" class="st1" width="1.7" height="1.7"/>
	<rect x="212.5" y="199.3" class="st1" width="1.7" height="1.7"/>
	<rect x="212.5" y="202.2" class="st1" width="1.7" height="1.7"/>
	<rect x="212.5" y="205.2" class="st1" width="1.7" height="1.7"/>
	<rect x="212.5" y="211" class="st1" width="1.7" height="1.7"/>
	<rect x="215.3" y="152.7" class="st1" width="1.7" height="1.7"/>
	<rect x="215.3" y="155.6" class="st1" width="1.7" height="1.7"/>
	<rect x="215.3" y="158.5" class="st1" width="1.7" height="1.7"/>
	<rect x="215.3" y="161.4" class="st1" width="1.7" height="1.7"/>
	<rect x="215.3" y="164.3" class="st1" width="1.7" height="1.7"/>
	<rect x="215.3" y="167.2" class="st1" width="1.7" height="1.7"/>
	<rect x="215.3" y="176" class="st1" width="1.7" height="1.7"/>
	<rect x="215.3" y="178.9" class="st1" width="1.7" height="1.7"/>
	<rect x="215.3" y="181.8" class="st1" width="1.7" height="1.7"/>
	<rect x="215.3" y="184.7" class="st1" width="1.7" height="1.7"/>
	<rect x="215.3" y="193.5" class="st1" width="1.7" height="1.7"/>
	<rect x="215.3" y="196.4" class="st1" width="1.7" height="1.7"/>
	<rect x="215.3" y="199.3" class="st1" width="1.7" height="1.7"/>
	<rect x="215.3" y="202.2" class="st1" width="1.7" height="1.7"/>
	<rect x="215.3" y="205.2" class="st1" width="1.7" height="1.7"/>
	<rect x="215.3" y="211" class="st1" width="1.7" height="1.7"/>
	<rect x="215.3" y="213.9" class="st1" width="1.7" height="1.7"/>
	<rect x="240.4" y="179.8" class="st1" width="1.7" height="1.7"/>
	<rect x="240.4" y="182.7" class="st1" width="1.7" height="1.7"/>
	<rect x="240.4" y="185.6" class="st1" width="1.7" height="1.7"/>
	<rect x="240.4" y="188.5" class="st1" width="1.7" height="1.7"/>
	<rect x="240.4" y="191.4" class="st1" width="1.7" height="1.7"/>
	<rect x="240.4" y="194.4" class="st1" width="1.7" height="1.7"/>
	<rect x="240.4" y="197.3" class="st1" width="1.7" height="1.7"/>
	<rect x="240.4" y="206" class="st1" width="1.7" height="1.7"/>
	<rect x="240.4" y="208.9" class="st1" width="1.7" height="1.7"/>
	<rect x="240.4" y="211.9" class="st1" width="1.7" height="1.7"/>
	<rect x="243.1" y="179.8" class="st1" width="1.7" height="1.7"/>
	<rect x="243.1" y="182.7" class="st1" width="1.7" height="1.7"/>
	<rect x="243.1" y="185.6" class="st1" width="1.7" height="1.7"/>
	<rect x="243.1" y="188.5" class="st1" width="1.7" height="1.7"/>
	<rect x="243.1" y="191.4" class="st1" width="1.7" height="1.7"/>
	<rect x="243.1" y="194.4" class="st1" width="1.7" height="1.7"/>
	<rect x="243.1" y="197.3" class="st1" width="1.7" height="1.7"/>
	<rect x="245.9" y="179.8" class="st1" width="2.5" height="1.7"/>
	<rect x="245.9" y="182.7" class="st1" width="2.5" height="1.7"/>
	<rect x="245.9" y="185.6" class="st1" width="2.5" height="1.7"/>
	<rect x="245.9" y="188.5" class="st1" width="2.5" height="1.7"/>
	<rect x="245.9" y="191.4" class="st1" width="2.5" height="1.7"/>
	<rect x="245.9" y="194.4" class="st1" width="2.5" height="1.7"/>
	<rect x="245.9" y="197.3" class="st1" width="2.5" height="1.7"/>
	<rect x="93.9" y="183.6" class="st1" width="1.7" height="1.7"/>
	<rect x="93.9" y="186.5" class="st1" width="1.7" height="1.7"/>
	<rect x="93.9" y="189.4" class="st1" width="1.7" height="1.7"/>
	<rect x="93.9" y="192.3" class="st1" width="1.7" height="1.7"/>
	<rect x="93.9" y="195.2" class="st1" width="1.7" height="1.7"/>
	<rect x="93.9" y="198.1" class="st1" width="1.7" height="1.7"/>
	<rect x="93.9" y="201.1" class="st1" width="1.7" height="1.7"/>
	<rect x="93.9" y="204" class="st1" width="1.7" height="1.7"/>
	<rect x="93.9" y="206.9" class="st1" width="1.7" height="1.7"/>
	<rect x="93.9" y="209.8" class="st1" width="1.7" height="1.7"/>
	<rect x="93.9" y="212.7" class="st1" width="1.7" height="1.7"/>
	<rect x="93.9" y="215.6" class="st1" width="1.7" height="1.7"/>
	<rect x="93.9" y="218.6" class="st1" width="1.7" height="1.7"/>
	<rect x="93.9" y="221.5" class="st1" width="1.7" height="1.7"/>
	<rect x="93.9" y="224.4" class="st1" width="1.7" height="1.7"/>
	<rect x="93.9" y="227.3" class="st1" width="1.7" height="1.7"/>
	<rect x="93.9" y="230.2" class="st1" width="1.7" height="1.7"/>
	<rect x="93.9" y="233.1" class="st1" width="1.7" height="1.7"/>
	<rect x="93.9" y="236.1" class="st1" width="1.7" height="1.7"/>
	<rect x="93.9" y="239" class="st1" width="1.7" height="1.7"/>
	<rect x="96.7" y="183.6" class="st1" width="1.7" height="1.7"/>
	<rect x="96.7" y="186.5" class="st1" width="1.7" height="1.7"/>
	<rect x="96.7" y="189.4" class="st1" width="1.7" height="1.7"/>
	<rect x="96.7" y="192.3" class="st1" width="1.7" height="1.7"/>
	<rect x="96.7" y="195.2" class="st1" width="1.7" height="1.7"/>
	<rect x="96.7" y="198.1" class="st1" width="1.7" height="1.7"/>
	<rect x="96.7" y="201.1" class="st1" width="1.7" height="1.7"/>
	<rect x="96.7" y="204" class="st1" width="1.7" height="1.7"/>
	<rect x="96.7" y="206.9" class="st1" width="1.7" height="1.7"/>
	<rect x="96.7" y="209.8" class="st1" width="1.7" height="1.7"/>
	<rect x="96.7" y="212.7" class="st1" width="1.7" height="1.7"/>
	<rect x="96.7" y="215.6" class="st1" width="1.7" height="1.7"/>
	<rect x="96.7" y="218.6" class="st1" width="1.7" height="1.7"/>
	<rect x="96.7" y="221.5" class="st1" width="1.7" height="1.7"/>
	<rect x="96.7" y="224.4" class="st1" width="1.7" height="1.7"/>
	<rect x="96.7" y="227.3" class="st1" width="1.7" height="1.7"/>
	<rect x="96.7" y="230.2" class="st1" width="1.7" height="1.7"/>
	<rect x="96.7" y="233.1" class="st1" width="1.7" height="1.7"/>
	<rect x="99.5" y="183.6" class="st1" width="1.7" height="1.7"/>
	<rect x="99.5" y="186.5" class="st1" width="1.7" height="1.7"/>
	<rect x="99.5" y="189.4" class="st1" width="1.7" height="1.7"/>
	<rect x="99.5" y="192.3" class="st1" width="1.7" height="1.7"/>
	<rect x="99.5" y="195.2" class="st1" width="1.7" height="1.7"/>
	<rect x="99.5" y="198.1" class="st1" width="1.7" height="1.7"/>
	<rect x="99.5" y="201.1" class="st1" width="1.7" height="1.7"/>
	<rect x="99.5" y="204" class="st1" width="1.7" height="1.7"/>
	<rect x="99.5" y="206.9" class="st1" width="1.7" height="1.7"/>
	<rect x="99.5" y="209.8" class="st1" width="1.7" height="1.7"/>
	<rect x="99.5" y="212.7" class="st1" width="1.7" height="1.7"/>
	<rect x="99.5" y="215.6" class="st1" width="1.7" height="1.7"/>
	<rect x="99.5" y="218.6" class="st1" width="1.7" height="1.7"/>
	<rect x="99.5" y="221.5" class="st1" width="1.7" height="1.7"/>
	<rect x="99.5" y="224.4" class="st1" width="1.7" height="1.7"/>
	<rect x="99.5" y="227.3" class="st1" width="1.7" height="1.7"/>
	<rect x="99.5" y="230.2" class="st1" width="1.7" height="1.7"/>
	<rect x="99.5" y="233.1" class="st1" width="1.7" height="1.7"/>
	<rect x="83.6" y="204.9" class="st1" width="1.7" height="1.7"/>
	<rect x="83.6" y="207.8" class="st1" width="1.7" height="1.7"/>
	<rect x="83.6" y="210.7" class="st1" width="1.7" height="1.7"/>
	<rect x="83.6" y="213.6" class="st1" width="1.7" height="1.7"/>
	<rect x="83.6" y="216.5" class="st1" width="1.7" height="1.7"/>
	<rect x="83.6" y="219.4" class="st1" width="1.7" height="1.7"/>
	<rect x="83.6" y="222.4" class="st1" width="1.7" height="1.7"/>
	<rect x="83.6" y="225.3" class="st1" width="1.7" height="1.7"/>
	<rect x="83.6" y="228.2" class="st1" width="1.7" height="1.7"/>
	<rect x="83.6" y="231.1" class="st1" width="1.7" height="1.7"/>
	<rect x="83.6" y="234" class="st1" width="1.7" height="1.7"/>
	<rect x="83.6" y="236.9" class="st1" width="1.7" height="1.7"/>
	<rect x="83.6" y="239.8" class="st1" width="1.7" height="1.7"/>
	<rect x="86.4" y="204.9" class="st1" width="1.7" height="1.7"/>
	<rect x="86.4" y="207.8" class="st1" width="1.7" height="1.7"/>
	<rect x="86.4" y="210.7" class="st1" width="1.7" height="1.7"/>
	<rect x="86.4" y="213.6" class="st1" width="1.7" height="1.7"/>
	<rect x="86.4" y="216.5" class="st1" width="1.7" height="1.7"/>
	<rect x="86.4" y="219.4" class="st1" width="1.7" height="1.7"/>
	<rect x="86.4" y="222.4" class="st1" width="1.7" height="1.7"/>
	<rect x="86.4" y="225.3" class="st1" width="1.7" height="1.7"/>
	<rect x="86.4" y="228.2" class="st1" width="1.7" height="1.7"/>
	<rect x="86.4" y="231.1" class="st1" width="1.7" height="1.7"/>
	<rect x="86.4" y="234" class="st1" width="1.7" height="1.7"/>
	<rect x="86.4" y="236.9" class="st1" width="1.7" height="1.7"/>
	<rect x="86.4" y="239.8" class="st1" width="1.7" height="1.7"/>
	<rect x="89.1" y="204.9" class="st1" width="1.7" height="1.7"/>
	<rect x="89.1" y="207.8" class="st1" width="1.7" height="1.7"/>
	<rect x="89.1" y="210.7" class="st1" width="1.7" height="1.7"/>
	<rect x="89.1" y="213.6" class="st1" width="1.7" height="1.7"/>
	<rect x="89.1" y="216.5" class="st1" width="1.7" height="1.7"/>
	<rect x="89.1" y="219.4" class="st1" width="1.7" height="1.7"/>
	<rect x="89.1" y="222.4" class="st1" width="1.7" height="1.7"/>
	<rect x="89.1" y="225.3" class="st1" width="1.7" height="1.7"/>
	<rect x="89.1" y="228.2" class="st1" width="1.7" height="1.7"/>
	<rect x="89.1" y="231.1" class="st1" width="1.7" height="1.7"/>
	<rect x="89.1" y="234" class="st1" width="1.7" height="1.7"/>
	<rect x="89.1" y="236.9" class="st1" width="1.7" height="1.7"/>
	<rect x="89.1" y="239.8" class="st1" width="1.7" height="1.7"/>
	<rect x="89.1" y="242.8" class="st1" width="1.7" height="1.7"/>
	<rect x="104.5" y="205.7" class="st1" width="1.7" height="1.7"/>
	<rect x="104.5" y="208.6" class="st1" width="1.7" height="1.7"/>
	<rect x="104.5" y="211.6" class="st1" width="1.7" height="1.7"/>
	<rect x="104.5" y="214.5" class="st1" width="1.7" height="1.7"/>
	<rect x="104.5" y="217.4" class="st1" width="1.7" height="1.7"/>
	<rect x="104.5" y="220.3" class="st1" width="1.7" height="1.7"/>
	<rect x="104.5" y="223.2" class="st1" width="1.7" height="1.7"/>
	<rect x="104.5" y="226.1" class="st1" width="1.7" height="1.7"/>
	<rect x="104.5" y="229.1" class="st1" width="1.7" height="1.7"/>
	<rect x="104.5" y="232" class="st1" width="1.7" height="1.7"/>
	<rect x="104.5" y="240.7" class="st1" width="1.7" height="1.7"/>
	<rect x="107.2" y="205.7" class="st1" width="1.7" height="1.7"/>
	<rect x="107.2" y="208.6" class="st1" width="1.7" height="1.7"/>
	<rect x="107.2" y="211.6" class="st1" width="1.7" height="1.7"/>
	<rect x="107.2" y="214.5" class="st1" width="1.7" height="1.7"/>
	<rect x="107.2" y="217.4" class="st1" width="1.7" height="1.7"/>
	<rect x="107.2" y="220.3" class="st1" width="1.7" height="1.7"/>
	<rect x="107.2" y="223.2" class="st1" width="1.7" height="1.7"/>
	<rect x="107.2" y="226.1" class="st1" width="1.7" height="1.7"/>
	<rect x="107.2" y="229.1" class="st1" width="1.7" height="1.7"/>
	<rect x="107.2" y="237.8" class="st1" width="1.7" height="1.7"/>
	<rect x="107.2" y="240.7" class="st1" width="1.7" height="1.7"/>
	<rect x="110" y="205.7" class="st1" width="1.7" height="1.7"/>
	<rect x="110" y="208.6" class="st1" width="1.7" height="1.7"/>
	<rect x="110" y="211.6" class="st1" width="1.7" height="1.7"/>
	<rect x="110" y="214.5" class="st1" width="1.7" height="1.7"/>
	<rect x="110" y="217.4" class="st1" width="1.7" height="1.7"/>
	<rect x="110" y="220.3" class="st1" width="1.7" height="1.7"/>
	<rect x="110" y="223.2" class="st1" width="1.7" height="1.7"/>
	<rect x="110" y="226.1" class="st1" width="1.7" height="1.7"/>
	<rect x="110" y="234.9" class="st1" width="1.7" height="1.7"/>
	<rect x="110" y="237.8" class="st1" width="1.7" height="1.7"/>
	<rect x="110" y="240.7" class="st1" width="1.7" height="1.7"/>
	<rect x="135.7" y="161.4" class="st1" width="1.7" height="1.7"/>
	<rect x="135.7" y="164.3" class="st1" width="1.7" height="1.7"/>
	<rect x="135.7" y="167.2" class="st1" width="1.7" height="1.7"/>
	<rect x="135.7" y="170.2" class="st1" width="1.7" height="1.7"/>
	<rect x="135.7" y="173.1" class="st1" width="1.7" height="1.7"/>
	<rect x="135.7" y="176" class="st1" width="1.7" height="1.7"/>
	<rect x="135.7" y="178.9" class="st1" width="1.7" height="1.7"/>
	<rect x="135.7" y="181.8" class="st1" width="1.7" height="1.7"/>
	<rect x="135.7" y="184.7" class="st1" width="1.7" height="1.7"/>
	<rect x="135.7" y="187.7" class="st1" width="1.7" height="1.7"/>
	<rect x="135.7" y="190.6" class="st1" width="1.7" height="1.7"/>
	<rect x="135.7" y="193.5" class="st1" width="1.7" height="1.7"/>
	<rect x="135.7" y="196.4" class="st1" width="1.7" height="1.7"/>
	<rect x="135.7" y="199.3" class="st1" width="1.7" height="1.7"/>
	<rect x="135.7" y="202.2" class="st1" width="1.7" height="1.7"/>
	<rect x="135.7" y="205.2" class="st1" width="1.7" height="1.7"/>
	<rect x="135.7" y="208.1" class="st1" width="1.7" height="1.7"/>
	<rect x="135.7" y="213.9" class="st1" width="1.7" height="1.7"/>
	<rect x="135.7" y="216.8" class="st1" width="1.7" height="1.7"/>
	<rect x="135.7" y="219.7" class="st1" width="1.7" height="1.7"/>
	<rect x="135.7" y="222.6" class="st1" width="1.7" height="1.7"/>
	<rect x="135.7" y="225.6" class="st1" width="1.7" height="1.7"/>
	<rect x="138.4" y="161.4" class="st1" width="1.7" height="1.7"/>
	<rect x="138.4" y="164.3" class="st1" width="1.7" height="1.7"/>
	<rect x="138.4" y="167.2" class="st1" width="1.7" height="1.7"/>
	<rect x="138.4" y="170.2" class="st1" width="1.7" height="1.7"/>
	<rect x="138.4" y="173.1" class="st1" width="1.7" height="1.7"/>
	<rect x="138.4" y="176" class="st1" width="1.7" height="1.7"/>
	<rect x="138.4" y="178.9" class="st1" width="1.7" height="1.7"/>
	<rect x="138.4" y="181.8" class="st1" width="1.7" height="1.7"/>
	<rect x="138.4" y="184.7" class="st1" width="1.7" height="1.7"/>
	<rect x="138.4" y="187.7" class="st1" width="1.7" height="1.7"/>
	<rect x="138.4" y="190.6" class="st1" width="1.7" height="1.7"/>
	<rect x="138.4" y="193.5" class="st1" width="1.7" height="1.7"/>
	<rect x="138.4" y="196.4" class="st1" width="1.7" height="1.7"/>
	<rect x="138.4" y="199.3" class="st1" width="1.7" height="1.7"/>
	<rect x="138.4" y="202.2" class="st1" width="1.7" height="1.7"/>
	<rect x="138.4" y="205.2" class="st1" width="1.7" height="1.7"/>
	<rect x="138.4" y="222.6" class="st1" width="1.7" height="1.7"/>
	<rect x="138.4" y="225.6" class="st1" width="1.7" height="1.7"/>
	<rect x="141.2" y="161.4" class="st1" width="1.7" height="1.7"/>
	<rect x="141.2" y="164.3" class="st1" width="1.7" height="1.7"/>
	<rect x="141.2" y="167.2" class="st1" width="1.7" height="1.7"/>
	<rect x="141.2" y="170.2" class="st1" width="1.7" height="1.7"/>
	<rect x="141.2" y="173.1" class="st1" width="1.7" height="1.7"/>
	<rect x="141.2" y="176" class="st1" width="1.7" height="1.7"/>
	<rect x="141.2" y="178.9" class="st1" width="1.7" height="1.7"/>
	<rect x="141.2" y="181.8" class="st1" width="1.7" height="1.7"/>
	<rect x="141.2" y="184.7" class="st1" width="1.7" height="1.7"/>
	<rect x="141.2" y="187.7" class="st1" width="1.7" height="1.7"/>
	<rect x="141.2" y="190.6" class="st1" width="1.7" height="1.7"/>
	<rect x="141.2" y="193.5" class="st1" width="1.7" height="1.7"/>
	<rect x="141.2" y="196.4" class="st1" width="1.7" height="1.7"/>
	<rect x="141.2" y="199.3" class="st1" width="1.7" height="1.7"/>
	<rect x="141.2" y="202.2" class="st1" width="1.7" height="1.7"/>
	<rect x="141.2" y="205.2" class="st1" width="1.7" height="1.7"/>
	<rect x="141.2" y="211" class="st1" width="1.7" height="1.7"/>
	<rect x="141.2" y="213.9" class="st1" width="1.7" height="1.7"/>
	<rect x="141.2" y="216.8" class="st1" width="1.7" height="1.7"/>
	<rect x="141.2" y="219.7" class="st1" width="1.7" height="1.7"/>
	<rect x="141.2" y="225.6" class="st1" width="1.7" height="1.7"/>
	<rect x="125.7" y="198.1" class="st1" width="1.7" height="1.7"/>
	<rect x="125.7" y="201.1" class="st1" width="1.7" height="1.7"/>
	<rect x="125.7" y="204" class="st1" width="1.7" height="1.7"/>
	<rect x="125.7" y="206.9" class="st1" width="1.7" height="1.7"/>
	<rect x="125.7" y="209.8" class="st1" width="1.7" height="1.7"/>
	<rect x="125.7" y="212.7" class="st1" width="1.7" height="1.7"/>
	<rect x="125.7" y="215.6" class="st1" width="1.7" height="1.7"/>
	<rect x="125.7" y="221.5" class="st1" width="1.7" height="1.7"/>
	<rect x="125.7" y="224.4" class="st1" width="1.7" height="1.7"/>
	<rect x="125.7" y="227.3" class="st1" width="1.7" height="1.7"/>
	<rect x="125.7" y="230.2" class="st1" width="1.7" height="1.7"/>
	<rect x="125.7" y="233.1" class="st1" width="1.7" height="1.7"/>
	<rect x="125.7" y="236.1" class="st1" width="1.7" height="1.7"/>
	<rect x="125.7" y="239" class="st1" width="1.7" height="1.7"/>
	<rect x="125.7" y="241.9" class="st1" width="1.7" height="1.7"/>
	<rect x="128.4" y="198.1" class="st1" width="1.7" height="1.7"/>
	<rect x="128.4" y="201.1" class="st1" width="1.7" height="1.7"/>
	<rect x="128.4" y="204" class="st1" width="1.7" height="1.7"/>
	<rect x="128.4" y="206.9" class="st1" width="1.7" height="1.7"/>
	<rect x="128.4" y="209.8" class="st1" width="1.7" height="1.7"/>
	<rect x="128.4" y="212.7" class="st1" width="1.7" height="1.7"/>
	<rect x="128.4" y="221.5" class="st1" width="1.7" height="1.7"/>
	<rect x="128.4" y="224.4" class="st1" width="1.7" height="1.7"/>
	<rect x="128.4" y="227.3" class="st1" width="1.7" height="1.7"/>
	<rect x="128.4" y="230.2" class="st1" width="1.7" height="1.7"/>
	<rect x="128.4" y="233.1" class="st1" width="1.7" height="1.7"/>
	<rect x="128.4" y="236.1" class="st1" width="1.7" height="1.7"/>
	<rect x="128.4" y="239" class="st1" width="1.7" height="1.7"/>
	<rect x="128.4" y="241.9" class="st1" width="1.7" height="1.7"/>
	<rect x="131.2" y="198.1" class="st1" width="1.7" height="1.7"/>
	<rect x="131.2" y="201.1" class="st1" width="1.7" height="1.7"/>
	<rect x="131.2" y="204" class="st1" width="1.7" height="1.7"/>
	<rect x="131.2" y="206.9" class="st1" width="1.7" height="1.7"/>
	<rect x="131.2" y="209.8" class="st1" width="1.7" height="1.7"/>
	<rect x="131.2" y="212.7" class="st1" width="1.7" height="1.7"/>
	<rect x="131.2" y="218.6" class="st1" width="1.7" height="1.7"/>
	<rect x="131.2" y="221.5" class="st1" width="1.7" height="1.7"/>
	<rect x="131.2" y="224.4" class="st1" width="1.7" height="1.7"/>
	<rect x="131.2" y="227.3" class="st1" width="1.7" height="1.7"/>
	<rect x="131.2" y="230.2" class="st1" width="1.7" height="1.7"/>
	<rect x="131.2" y="233.1" class="st1" width="1.7" height="1.7"/>
	<rect x="131.2" y="236.1" class="st1" width="1.7" height="1.7"/>
	<rect x="131.2" y="239" class="st1" width="1.7" height="1.7"/>
	<rect x="131.2" y="241.9" class="st1" width="1.7" height="1.7"/>
	<rect x="189.4" y="181.8" class="st1" width="1.7" height="1.7"/>
	<rect x="189.4" y="184.7" class="st1" width="1.7" height="1.7"/>
	<rect x="189.4" y="187.7" class="st1" width="1.7" height="1.7"/>
	<rect x="189.4" y="190.6" class="st1" width="1.7" height="1.7"/>
	<rect x="189.4" y="193.5" class="st1" width="1.7" height="1.7"/>
	<rect x="189.4" y="196.4" class="st1" width="1.7" height="1.7"/>
	<rect x="189.4" y="199.3" class="st1" width="1.7" height="1.7"/>
	<rect x="189.4" y="202.2" class="st1" width="1.7" height="1.7"/>
	<rect x="189.4" y="205.2" class="st1" width="1.7" height="1.7"/>
	<rect x="189.4" y="208.1" class="st1" width="1.7" height="1.7"/>
	<rect x="189.4" y="211" class="st1" width="1.7" height="1.7"/>
	<rect x="189.4" y="213.9" class="st1" width="1.7" height="1.7"/>
	<rect x="189.4" y="216.8" class="st1" width="1.7" height="1.7"/>
	<rect x="189.4" y="222.6" class="st1" width="1.7" height="1.7"/>
	<rect x="189.4" y="225.6" class="st1" width="1.7" height="1.7"/>
	<rect x="189.4" y="228.5" class="st1" width="1.7" height="1.7"/>
	<rect x="189.4" y="231.4" class="st1" width="1.7" height="1.7"/>
	<rect x="189.4" y="237.2" class="st1" width="1.7" height="1.7"/>
	<rect x="189.4" y="240.1" class="st1" width="1.7" height="1.7"/>
	<rect x="189.4" y="243.1" class="st1" width="1.7" height="1.7"/>
	<rect x="192.2" y="181.8" class="st1" width="1.7" height="1.7"/>
	<rect x="192.2" y="184.7" class="st1" width="1.7" height="1.7"/>
	<rect x="192.2" y="187.7" class="st1" width="1.7" height="1.7"/>
	<rect x="192.2" y="190.6" class="st1" width="1.7" height="1.7"/>
	<rect x="192.2" y="193.5" class="st1" width="1.7" height="1.7"/>
	<rect x="192.2" y="196.4" class="st1" width="1.7" height="1.7"/>
	<rect x="192.2" y="199.3" class="st1" width="1.7" height="1.7"/>
	<rect x="192.2" y="202.2" class="st1" width="1.7" height="1.7"/>
	<rect x="192.2" y="205.2" class="st1" width="1.7" height="1.7"/>
	<rect x="192.2" y="208.1" class="st1" width="1.7" height="1.7"/>
	<rect x="192.2" y="211" class="st1" width="1.7" height="1.7"/>
	<rect x="192.2" y="213.9" class="st1" width="1.7" height="1.7"/>
	<rect x="192.2" y="216.8" class="st1" width="1.7" height="1.7"/>
	<rect x="192.2" y="225.6" class="st1" width="1.7" height="1.7"/>
	<rect x="192.2" y="228.5" class="st1" width="1.7" height="1.7"/>
	<rect x="192.2" y="234.3" class="st1" width="1.7" height="1.7"/>
	<rect x="192.2" y="237.2" class="st1" width="1.7" height="1.7"/>
	<rect x="192.2" y="240.1" class="st1" width="1.7" height="1.7"/>
	<rect x="192.2" y="243.1" class="st1" width="1.7" height="1.7"/>
	<rect x="194.9" y="181.8" class="st1" width="1.7" height="1.7"/>
	<rect x="194.9" y="184.7" class="st1" width="1.7" height="1.7"/>
	<rect x="194.9" y="187.7" class="st1" width="1.7" height="1.7"/>
	<rect x="194.9" y="190.6" class="st1" width="1.7" height="1.7"/>
	<rect x="194.9" y="193.5" class="st1" width="1.7" height="1.7"/>
	<rect x="194.9" y="196.4" class="st1" width="1.7" height="1.7"/>
	<rect x="194.9" y="199.3" class="st1" width="1.7" height="1.7"/>
	<rect x="194.9" y="202.2" class="st1" width="1.7" height="1.7"/>
	<rect x="194.9" y="205.2" class="st1" width="1.7" height="1.7"/>
	<rect x="194.9" y="208.1" class="st1" width="1.7" height="1.7"/>
	<rect x="194.9" y="211" class="st1" width="1.7" height="1.7"/>
	<rect x="194.9" y="213.9" class="st1" width="1.7" height="1.7"/>
	<rect x="194.9" y="216.8" class="st1" width="1.7" height="1.7"/>
	<rect x="194.9" y="219.7" class="st1" width="1.7" height="1.7"/>
	<rect x="194.9" y="225.6" class="st1" width="1.7" height="1.7"/>
	<rect x="194.9" y="231.4" class="st1" width="1.7" height="1.7"/>
	<rect x="194.9" y="234.3" class="st1" width="1.7" height="1.7"/>
	<rect x="194.9" y="237.2" class="st1" width="1.7" height="1.7"/>
	<rect x="194.9" y="240.1" class="st1" width="1.7" height="1.7"/>
	<rect x="194.9" y="243.1" class="st1" width="1.7" height="1.7"/>
	<rect x="178.1" y="198.4" class="st1" width="1.7" height="1.7"/>
	<rect x="178.1" y="201.4" class="st1" width="1.7" height="1.7"/>
	<rect x="178.1" y="204.3" class="st1" width="1.7" height="1.7"/>
	<rect x="178.1" y="207.2" class="st1" width="1.7" height="1.7"/>
	<rect x="178.1" y="210.1" class="st1" width="1.7" height="1.7"/>
	<rect x="178.1" y="213" class="st1" width="1.7" height="1.7"/>
	<rect x="178.1" y="221.8" class="st1" width="1.7" height="1.7"/>
	<rect x="178.1" y="224.7" class="st1" width="1.7" height="1.7"/>
	<rect x="178.1" y="227.6" class="st1" width="1.7" height="1.7"/>
	<rect x="178.1" y="230.5" class="st1" width="1.7" height="1.7"/>
	<rect x="178.1" y="233.4" class="st1" width="1.7" height="1.7"/>
	<rect x="178.1" y="236.4" class="st1" width="1.7" height="1.7"/>
	<rect x="178.1" y="239.3" class="st1" width="1.7" height="1.7"/>
	<rect x="180.9" y="198.4" class="st1" width="1.7" height="1.7"/>
	<rect x="180.9" y="201.4" class="st1" width="1.7" height="1.7"/>
	<rect x="180.9" y="204.3" class="st1" width="1.7" height="1.7"/>
	<rect x="180.9" y="207.2" class="st1" width="1.7" height="1.7"/>
	<rect x="180.9" y="210.1" class="st1" width="1.7" height="1.7"/>
	<rect x="180.9" y="213" class="st1" width="1.7" height="1.7"/>
	<rect x="180.9" y="221.8" class="st1" width="1.7" height="1.7"/>
	<rect x="180.9" y="224.7" class="st1" width="1.7" height="1.7"/>
	<rect x="180.9" y="227.6" class="st1" width="1.7" height="1.7"/>
	<rect x="180.9" y="230.5" class="st1" width="1.7" height="1.7"/>
	<rect x="180.9" y="233.4" class="st1" width="1.7" height="1.7"/>
	<rect x="180.9" y="236.4" class="st1" width="1.7" height="1.7"/>
	<rect x="180.9" y="242.2" class="st1" width="1.7" height="1.7"/>
	<rect x="245.4" y="103.1" class="st0" width="3.4" height="189.5"/>
	<rect x="190.5" y="103.1" class="st0" width="2.9" height="189.5"/>
	<rect x="135.6" y="103.1" class="st0" width="2.9" height="189.5"/>
	<circle class="st3" cx="344.9" cy="96.4" r="14.2"/>
	<path class="st2" d="M356.9,96.4c0,6.6-5.4,12-12,12s-12-5.4-12-12s5.4-12,12-12S356.9,89.8,356.9,96.4z"/>
	<polyline class="st2" points="344.3,88.2 344.3,96.6 338.8,93.4 	"/>
	<path class="st3" d="M344.3,97.6c-0.2,0-0.3,0-0.5-0.1l-5.6-3.2c-0.5-0.3-0.6-0.9-0.4-1.4c0.3-0.5,0.9-0.6,1.4-0.4l4.1,2.3v-6.7
		c0-0.6,0.4-1,1-1s1,0.4,1,1v8.4c0,0.4-0.2,0.7-0.5,0.9C344.7,97.5,344.5,97.6,344.3,97.6z"/>
	<rect x="353" y="119.3" class="st4" width="62.6" height="82.7"/>
	<polygon class="st0" points="374.3,128.1 374.3,164.4 388.8,163.6 390.4,128.1 	"/>
	<polygon class="st3" points="386,135.1 408.3,135.1 408.1,166.9 396.6,167.1 	"/>
	<polygon class="st5" points="364.3,130.4 370.2,130.4 368.1,158.8 360.8,160.6 	"/>
	<rect x="281.4" y="136.1" class="st5" width="62.4" height="76"/>
	<polygon class="st3" points="295.6,193.2 328.5,161 293,155.1 	"/>
	<polygon class="st2" points="327.7,185.6 329.3,160.9 304.6,166.9 302.8,185.9 	"/>
	<circle class="st1" cx="295.3" cy="150.8" r="10"/>
	<path class="st3" d="M324.4,194.4c0-2.7,2.2-4.8,4.8-4.8c2.7,0,4.8,2.2,4.8,4.8c0,2.7-2.2,4.8-4.8,4.8l0,0
		C326.6,199.3,324.4,197.1,324.4,194.4z"/>
	<polygon class="st4" points="328.1,202.9 314.2,194.4 325.9,184.8 	"/>
	<rect x="308.9" y="145.8" class="st3" width="2.8" height="60.7"/>
	<rect x="334.4" y="145.8" class="st0" width="3.5" height="58"/>
	<rect x="287.6" y="185.9" class="st0" width="18.1" height="18.1"/>
	<rect x="345.8" y="313.4" class="st5" width="65.6" height="59.6"/>
	<rect x="413.2" y="308.1" class="st5" width="8.2" height="74"/>
	<rect x="356.2" y="318.9" class="st1" width="5.4" height="21.4"/>
	<rect x="378.5" y="318.9" class="st4" width="5.4" height="21.4"/>
	<rect x="361.6" y="320.8" class="st4" width="5.4" height="19.5"/>
	<rect x="373.1" y="320.8" class="st1" width="5.4" height="19.5"/>
	<rect x="369.7" y="318.9" class="st0" width="3.5" height="21.4"/>
	<rect x="367" y="320.8" class="st1" width="2.7" height="19.5"/>
	<rect x="383.9" y="318.9" class="st0" width="5.4" height="21.4"/>
	<rect x="389.3" y="320.8" class="st5" width="5.4" height="19.5"/>
	<rect x="400.8" y="320.8" class="st5" width="5.4" height="19.5"/>
	<rect x="397.3" y="318.9" class="st1" width="3.5" height="21.4"/>
	<rect x="394.6" y="320.8" class="st0" width="2.7" height="19.5"/>
	<rect x="406.2" y="319.6" class="st1" width="2.7" height="20.8"/>
	<rect x="403.5" y="349.3" class="st1" width="5.4" height="20.4"/>
	<rect x="381.2" y="349.3" class="st1" width="5.4" height="20.4"/>
	<rect x="398.1" y="351.2" class="st2" width="5.4" height="18.5"/>
	<rect x="386.6" y="351.2" class="st0" width="5.4" height="18.5"/>
	<rect x="392" y="349.3" class="st1" width="3.5" height="20.4"/>
	<rect x="395.4" y="351.2" class="st4" width="2.7" height="18.5"/>
	<rect x="375.8" y="349.3" class="st0" width="5.4" height="20.4"/>
	<rect x="370.4" y="351.2" class="st4" width="5.4" height="18.5"/>
	<rect x="358.9" y="351.2" class="st5" width="5.4" height="18.5"/>
	<rect x="364.3" y="349.3" class="st1" width="3.5" height="20.4"/>
	<rect x="352.8" y="349.3" class="st1" width="3.5" height="20.4"/>
	<rect x="367.8" y="351.2" class="st0" width="2.7" height="18.5"/>
	<rect x="356.2" y="349.9" class="st2" width="2.7" height="19.8"/>
	<path class="st2" d="M411.1,308.1h-67.4v69.3h65.2v4.8h4.4v-74L411.1,308.1z M408.9,369.7h-61v-25h61V369.7z M408.9,340.4h-61
		v-24.5h61V340.4z"/>
	<rect x="280.1" y="313.4" class="st5" width="65.6" height="59.6"/>
	<rect x="282.6" y="376.5" class="st5" width="8.2" height="5.6"/>
	<rect x="338.1" y="318.9" class="st1" width="5.4" height="21.4"/>
	<rect x="315.8" y="318.9" class="st4" width="5.4" height="21.4"/>
	<rect x="332.7" y="320.8" class="st4" width="5.4" height="19.5"/>
	<rect x="321.2" y="320.8" class="st1" width="5.4" height="19.5"/>
	<rect x="326.5" y="318.9" class="st0" width="3.5" height="21.4"/>
	<rect x="330" y="320.8" class="st1" width="2.7" height="19.5"/>
	<rect x="314" y="318.9" class="st0" width="5.4" height="21.4"/>
	<rect x="308.6" y="320.8" class="st5" width="5.4" height="19.5"/>
	<rect x="297" y="320.8" class="st5" width="5.4" height="19.5"/>
	<rect x="302.4" y="318.9" class="st1" width="3.5" height="21.4"/>
	<rect x="305.9" y="320.8" class="st0" width="2.7" height="19.5"/>
	<rect x="294.4" y="319.6" class="st4" width="2.7" height="20.8"/>
	<rect x="291.8" y="349.3" class="st1" width="5.4" height="20.4"/>
	<rect x="314.1" y="349.3" class="st1" width="5.4" height="20.4"/>
	<rect x="297.2" y="351.2" class="st4" width="5.4" height="18.5"/>
	<rect x="308.7" y="351.2" class="st0" width="5.4" height="18.5"/>
	<rect x="305.3" y="349.3" class="st1" width="3.5" height="20.4"/>
	<rect x="302.6" y="351.2" class="st4" width="2.7" height="18.5"/>
	<rect x="316" y="349.3" class="st0" width="5.4" height="20.4"/>
	<rect x="321.3" y="351.2" class="st4" width="5.4" height="18.5"/>
	<rect x="332.9" y="351.2" class="st5" width="5.4" height="18.5"/>
	<rect x="329.4" y="349.3" class="st1" width="3.5" height="20.4"/>
	<rect x="340.2" y="349.3" class="st1" width="3.5" height="20.4"/>
	<rect x="326.7" y="351.2" class="st0" width="2.7" height="18.5"/>
	<rect x="338.2" y="349.9" class="st0" width="2.7" height="19.8"/>
	<path class="st2" d="M278.2,308.1v74h4.4v-4.8h65.2v-69.2H278.2z M282.6,344.8h61v25h-61V344.8z M282.6,315.8h61v24.5h-61V315.8z"
		/>
</g>
<g id="freepik--Shadow--inject-33">
	<ellipse id="freepik--path--inject-33" class="st4" cx="250" cy="416.2" rx="193.9" ry="11.3"/>
</g>
<g id="freepik--Plant--inject-33">
	<path class="st6" d="M382,372.6c0,0-7.8-9.2-12.7-4.9s-2.5,13.4,3.3,13.7c3.4,0.2,6.7-0.8,9.5-2.9V372.6z"/>
	<path class="st7" d="M382,372.6c0,0-7.8-9.2-12.7-4.9s-2.5,13.4,3.3,13.7c3.4,0.2,6.7-0.8,9.5-2.9V372.6z"/>
	<path class="st6" d="M413.7,349.2c0,0,6.5-6.8,10.5-5.7s3.6,17.5-8.9,10.9L413.7,349.2z"/>
	<path class="st8" d="M413.7,349.2c0,0,6.5-6.8,10.5-5.7s3.6,17.5-8.9,10.9L413.7,349.2z"/>
	<path class="st6" d="M390.4,400.1c0,0-21.4-29.3-4-35.2s20.5,23.5,15.5,31.8S390.4,400.1,390.4,400.1z"/>
	<path class="st6" d="M400.3,340.2c0,0,13.3-30.8-6.4-31.8s-21.8,30.6,0.8,35.1L400.3,340.2z"/>
	<path class="st8" d="M390.4,400.1c0,0-21.4-29.3-4-35.2s20.5,23.5,15.5,31.8S390.4,400.1,390.4,400.1z"/>
	<path class="st8" d="M400.3,340.2c0,0,13.3-30.8-6.4-31.8s-21.8,30.6,0.8,35.1L400.3,340.2z"/>
	<path class="st6" d="M395.6,365.4c0,0-6.5-27.2,6-29.4s24.6,22.4-1,34.8C400.6,370.8,396.2,368.1,395.6,365.4z"/>
	<path class="st7" d="M395.6,365.4c0,0-6.5-27.2,6-29.4s24.6,22.4-1,34.8C400.6,370.8,396.2,368.1,395.6,365.4z"/>
	<polygon class="st9" points="375,396 410.9,396 407.9,419 378,419 	"/>
	<path class="st10" d="M393.7,338c-7.4-5.4-12.5-15.9-8.2-24.7c-0.2,0.8-0.4,1.7-0.6,2.5C383.5,324.2,388.1,332.2,393.7,338z"/>
	<path class="st10" d="M389,311.5c8.5,1.7,12.3,10.8,11.3,18.8c-0.2,1.1-0.4,2.2-0.6,3.4c0.1-2.2,0.1-4.5-0.1-6.7
		C399.1,320.4,395.5,313.9,389,311.5z"/>
	<path class="st10" d="M404,338c4.8,1.7,7.8,7,7.8,11.9c0,4.3-2.4,8.3-5.1,11.5c-2,2.4-4.2,4.5-6.6,6.3c2.2-2.1,4.2-4.3,6-6.8
		c2.2-3,4.2-6.2,4.7-10C411.2,345.9,408.7,340.4,404,338L404,338z"/>
	<path class="st10" d="M400.3,340.2c1.3,4,2.4,8.8,0.3,12.7c-1.7,2.5-1.9,5.9-2,8.9c0,1.1,0,2.1,0.1,3.2c-0.5-2.1-0.7-4.2-0.7-6.4
		c0-2.2,0.6-4.4,1.7-6.2C401.7,348.7,400.8,344.1,400.3,340.2L400.3,340.2z"/>
	<path class="st10" d="M391.6,367.7c5,2.6,7,19.8,6.8,25.3c-0.1-1.1-0.3-2.2-0.5-3.3c-1-5.4-1.9-10.9-3.4-16.2
		C393.8,371.5,393.4,369,391.6,367.7z"/>
	<path class="st10" d="M385.5,368.6c-2.4,8-0.6,16.6,4.9,22.9c-0.8-0.7-1.5-1.4-2.2-2.2C383.2,383.6,382.2,375.5,385.5,368.6z"/>
	<path class="st10" d="M418.7,352.5c2.3-0.6,4.2-1.2,5.9-2.8C424.2,352.2,421,353.5,418.7,352.5z"/>
	<path class="st10" d="M417.4,348c1.1-2.2,4.7-3.5,6.3-1.2C421.5,345.9,419.4,347.1,417.4,348z"/>
	<path class="st10" d="M378.5,374c-2.5-1.8-5.1-4.8-8.3-3.2C372.8,367.7,377.2,371.2,378.5,374z"/>
	<path class="st10" d="M378.5,378.5c-3.3,1.2-9.8,1.3-10.2-3.3C370.2,379,375,378.2,378.5,378.5z"/>
</g>
<g id="freepik--trash-bin--inject-33">
	<path class="st6" d="M315.6,399c0.6-1.2,0.1-2.6-1.1-3.2c-0.3-0.1-0.5-0.2-0.8-0.2c0.7-2,0-4.3-1.6-5.6c-0.2-0.2-0.4-0.3-0.7-0.3
		c-0.3,0-0.5,0.1-0.8,0.3l-4.5,3.2c-0.4,0.2-0.7,0.5-0.9,0.9c-0.9,1.8,2.4,4.1,1,5.5c-0.4,0.4-1,0.5-1.5,0.8
		c-1.1,0.7-1.2,2.1-1.7,3.3s-2.2,2-2.9,1c0.5-1.1-1-2.1-2.2-2.2s-2.5-0.2-3.1-1.3c-1.7,1.5-5.5-2.7-5.5-4.4
		c-1.4,0.2-2.5,1.3-2.7,2.7c-0.2,1.4-0.2,2.8-0.1,4.2c0,2.7-0.9,5.4-0.9,8.1c0,2.1,0.9,4.5,2.8,5.3c1,0.3,2,0.5,3,0.4l22.1-0.1
		c0.5,0,1.1,0,1.6-0.3c1-0.5,1.2-1.8,1.3-3c0.4-4.8,0.8-9.6,1.2-14.4L315.6,399z"/>
	<path class="st7" d="M315.6,399c0.6-1.2,0.1-2.6-1.1-3.2c-0.3-0.1-0.5-0.2-0.8-0.2c0.7-2,0-4.3-1.6-5.6c-0.2-0.2-0.4-0.3-0.7-0.3
		c-0.3,0-0.5,0.1-0.8,0.3l-4.5,3.2c-0.4,0.2-0.7,0.5-0.9,0.9c-0.9,1.8,2.4,4.1,1,5.5c-0.4,0.4-1,0.5-1.5,0.8
		c-1.1,0.7-1.2,2.1-1.7,3.3s-2.2,2-2.9,1c0.5-1.1-1-2.1-2.2-2.2s-2.5-0.2-3.1-1.3c-1.7,1.5-5.5-2.7-5.5-4.4
		c-1.4,0.2-2.5,1.3-2.7,2.7c-0.2,1.4-0.2,2.8-0.1,4.2c0,2.7-0.9,5.4-0.9,8.1c0,2.1,0.9,4.5,2.8,5.3c1,0.3,2,0.5,3,0.4l22.1-0.1
		c0.5,0,1.1,0,1.6-0.3c1-0.5,1.2-1.8,1.3-3c0.4-4.8,0.8-9.6,1.2-14.4L315.6,399z"/>
	<path class="st6" d="M317,375.6h-34.4l0.3,3.5l0.2,2.5l0.5,6.4l0.3,3.7l0.4,4.9l0.2,2.1l0.1,0.6l0.2,2.5l0.3,3.4l0.2,2.1l0.2,2.1
		l0.2,2.5l0.2,1.9l0.2,2.1l0.1,0.9h31.5l0.1-0.9l0.2-2.1l0.2-1.9l0.2-2.5l0.2-2.1l0.2-2.1l0.3-3.4l0.2-2.5l0-0.6l0.2-2.1l0.4-4.9
		l0.3-3.7l0.5-6.5l0.2-2.5l0.3-3.5L317,375.6z M319.1,377.8L319.1,377.8l-0.7-0.7h0.7L319.1,377.8z M318.9,379.9l-0.1,0.8l-3.1,3.1
		l-3.5-3.5l3.1-3.2h0.7L318.9,379.9z M318,390.9l-2.2,2.2l-3.5-3.5l3.5-3.5l2.4,2.4L318,390.9z M285.3,388.6L285.3,388.6l2.4-2.4
		l3.5,3.5l-3.5,3.5l-2.2-2.2L285.3,388.6z M314.6,385l-3.6,3.5l-3.5-3.5l3.5-3.5L314.6,385z M309,377.2h4l-2,2L309,377.2z
		 M309.9,389.7l-3.5,3.5l-3.5-3.5l3.5-3.5L309.9,389.7z M298.2,394.3l3.5-3.5l3.5,3.5l-3.5,3.5L298.2,394.3z M300.6,399l-3.6,3.5
		l-3.5-3.5l3.5-3.5L300.6,399z M306.4,395.5l3.5,3.5l-3.5,3.5l-3.5-3.5L306.4,395.5z M301.7,388.5l-3.5-3.5l3.5-3.5l3.5,3.5
		L301.7,388.5z M300.6,389.7l-3.5,3.5l-3.5-3.5l3.5-3.5L300.6,389.7z M292.4,388.5l-3.5-3.5l3.5-3.5l3.5,3.5L292.4,388.5z
		 M292.4,390.8l3.5,3.5l-3.5,3.5l-3.5-3.5L292.4,390.8z M295.9,403.7l-3.5,3.5l-3.5-3.5l3.5-3.5L295.9,403.7z M297,404.8l3.5,3.5
		l-3.5,3.5l-3.5-3.5L297,404.8z M298.2,403.7l3.5-3.5l3.5,3.5l-3.5,3.5L298.2,403.7z M306.4,404.8l3.5,3.5l-3.5,3.5l-3.5-3.5
		L306.4,404.8z M311,409.5l3.5,3.5l-2.3,2.3h-2.5l-2.3-2.3L311,409.5z M307.5,403.7l3.5-3.5l3.5,3.5l-3.6,3.5L307.5,403.7z
		 M307.5,394.3l3.5-3.5l3.5,3.5l-3.5,3.5L307.5,394.3z M309.9,380.3l-3.5,3.5l-3.5-3.5l3.2-3.2h0.7L309.9,380.3z M301.7,379.2l-2-2
		h4L301.7,379.2z M300.6,380.3l-3.5,3.5l-3.5-3.5l3.1-3.2h0.7L300.6,380.3z M294.4,377.2l-2,2l-2-2H294.4z M288.1,377.2l3.1,3.2
		l-3.5,3.5l-3.1-3.1l-0.1-0.8l2.8-2.8H288.1z M285.1,377.2l-0.6,0.7l0,0l-0.1-0.7H285.1z M284.9,383.3l1.7,1.7l-1.5,1.5L284.9,383.3
		z M285.9,395.1l-0.1-1.7l0,0l0.9,0.9L285.9,395.1z M286,397.2l1.7-1.8l3.5,3.5l-3.5,3.5l-1.4-1.4L286,397.2z M286.6,403.7v-0.1
		V403.7L286.6,403.7L286.6,403.7z M287.2,411.2l-0.4-5.4l1-1l3.5,3.5l-3.5,3.5L287.2,411.2L287.2,411.2z M287.5,415.2l-0.1-0.8
		l0.3-0.3l1.1,1.1H287.5z M288.9,412.9l3.5-3.5l3.5,3.5l-2.3,2.3h-2.5L288.9,412.9z M296,415.2l1.1-1.1l1.1,1.1H296z M300.5,415.2
		l-2.3-2.2l3.5-3.5l3.5,3.5l-2.2,2.3L300.5,415.2z M305.3,415.2l1.1-1.1l1.1,1.1H305.3z M316,415.2h-1.4l1.1-1.1l0.3,0.3L316,415.2z
		 M316.4,411.2l-0.6,0.6l-3.5-3.5l3.5-3.5l1,1L316.4,411.2z M317,403.6v0.2V403.6L317,403.6L317,403.6z M317.2,401.1l-1.4,1.4
		l-3.6-3.5l3.5-3.5l1.8,1.8L317.2,401.1z M317.7,395.1l-0.8-0.8l0.9-0.9L317.7,395.1z M318.7,383.3l-0.3,3.2l-1.6-1.5L318.7,383.3
		L318.7,383.3z"/>
	<g class="st11">
		<path class="st6" d="M317,375.6h-34.4l0.3,3.5l0.2,2.5l0.5,6.4l0.3,3.7l0.4,4.9l0.2,2.1l0.1,0.6l0.2,2.5l0.3,3.4l0.2,2.1l0.2,2.1
			l0.2,2.5l0.2,1.9l0.2,2.1l0.1,0.9h31.5l0.1-0.9l0.2-2.1l0.2-1.9l0.2-2.5l0.2-2.1l0.2-2.1l0.3-3.4l0.2-2.5l0-0.6l0.2-2.1l0.4-4.9
			l0.3-3.7l0.5-6.5l0.2-2.5l0.3-3.5L317,375.6z M319.1,377.8L319.1,377.8l-0.7-0.7h0.7L319.1,377.8z M318.9,379.9l-0.1,0.8l-3.1,3.1
			l-3.5-3.5l3.1-3.2h0.7L318.9,379.9z M318,390.9l-2.2,2.2l-3.5-3.5l3.5-3.5l2.4,2.4L318,390.9z M285.3,388.6L285.3,388.6l2.4-2.4
			l3.5,3.5l-3.5,3.5l-2.2-2.2L285.3,388.6z M314.6,385l-3.6,3.5l-3.5-3.5l3.5-3.5L314.6,385z M309,377.2h4l-2,2L309,377.2z
			 M309.9,389.7l-3.5,3.5l-3.5-3.5l3.5-3.5L309.9,389.7z M298.2,394.3l3.5-3.5l3.5,3.5l-3.5,3.5L298.2,394.3z M300.6,399l-3.6,3.5
			l-3.5-3.5l3.5-3.5L300.6,399z M306.4,395.5l3.5,3.5l-3.5,3.5l-3.5-3.5L306.4,395.5z M301.7,388.5l-3.5-3.5l3.5-3.5l3.5,3.5
			L301.7,388.5z M300.6,389.7l-3.5,3.5l-3.5-3.5l3.5-3.5L300.6,389.7z M292.4,388.5l-3.5-3.5l3.5-3.5l3.5,3.5L292.4,388.5z
			 M292.4,390.8l3.5,3.5l-3.5,3.5l-3.5-3.5L292.4,390.8z M295.9,403.7l-3.5,3.5l-3.5-3.5l3.5-3.5L295.9,403.7z M297,404.8l3.5,3.5
			l-3.5,3.5l-3.5-3.5L297,404.8z M298.2,403.7l3.5-3.5l3.5,3.5l-3.5,3.5L298.2,403.7z M306.4,404.8l3.5,3.5l-3.5,3.5l-3.5-3.5
			L306.4,404.8z M311,409.5l3.5,3.5l-2.3,2.3h-2.5l-2.3-2.3L311,409.5z M307.5,403.7l3.5-3.5l3.5,3.5l-3.6,3.5L307.5,403.7z
			 M307.5,394.3l3.5-3.5l3.5,3.5l-3.5,3.5L307.5,394.3z M309.9,380.3l-3.5,3.5l-3.5-3.5l3.2-3.2h0.7L309.9,380.3z M301.7,379.2l-2-2
			h4L301.7,379.2z M300.6,380.3l-3.5,3.5l-3.5-3.5l3.1-3.2h0.7L300.6,380.3z M294.4,377.2l-2,2l-2-2H294.4z M288.1,377.2l3.1,3.2
			l-3.5,3.5l-3.1-3.1l-0.1-0.8l2.8-2.8H288.1z M285.1,377.2l-0.6,0.7l0,0l-0.1-0.7H285.1z M284.9,383.3l1.7,1.7l-1.5,1.5
			L284.9,383.3z M285.9,395.1l-0.1-1.7l0,0l0.9,0.9L285.9,395.1z M286,397.2l1.7-1.8l3.5,3.5l-3.5,3.5l-1.4-1.4L286,397.2z
			 M286.6,403.7v-0.1V403.7L286.6,403.7L286.6,403.7z M287.2,411.2l-0.4-5.4l1-1l3.5,3.5l-3.5,3.5L287.2,411.2L287.2,411.2z
			 M287.5,415.2l-0.1-0.8l0.3-0.3l1.1,1.1H287.5z M288.9,412.9l3.5-3.5l3.5,3.5l-2.3,2.3h-2.5L288.9,412.9z M296,415.2l1.1-1.1
			l1.1,1.1H296z M300.5,415.2l-2.3-2.2l3.5-3.5l3.5,3.5l-2.2,2.3L300.5,415.2z M305.3,415.2l1.1-1.1l1.1,1.1H305.3z M316,415.2h-1.4
			l1.1-1.1l0.3,0.3L316,415.2z M316.4,411.2l-0.6,0.6l-3.5-3.5l3.5-3.5l1,1L316.4,411.2z M317,403.6v0.2V403.6L317,403.6L317,403.6z
			 M317.2,401.1l-1.4,1.4l-3.6-3.5l3.5-3.5l1.8,1.8L317.2,401.1z M317.7,395.1l-0.8-0.8l0.9-0.9L317.7,395.1z M318.7,383.3l-0.3,3.2
			l-1.6-1.5L318.7,383.3L318.7,383.3z"/>
	</g>
	<path class="st6" d="M321.4,378.6H282c-0.9,0-1.6-0.7-1.6-1.6v-1.2c0-0.9,0.7-1.6,1.6-1.6h39.3c0.9,0,1.6,0.7,1.6,1.6v1.2
		C323,377.9,322.3,378.6,321.4,378.6z"/>
	<path class="st6" d="M285.1,414.5h33.2c0.9,0,1.6,0.7,1.6,1.6v1.2c0,0.9-0.7,1.6-1.6,1.6h-33.2c-0.9,0-1.6-0.7-1.6-1.6v-1.2
		C283.5,415.2,284.2,414.5,285.1,414.5z"/>
</g>
<g id="freepik--Screen--inject-33">
	
		<linearGradient id="SVGID_1_" gradientUnits="userSpaceOnUse" x1="-707.5211" y1="790.211" x2="-707.2148" y2="790.211" gradientTransform="matrix(640 0 0 -640 453051 505951)">
		<stop  offset="0" style="stop-color:#FCC758"/>
		<stop  offset="9.201998e-02" style="stop-color:#FDB062"/>
		<stop  offset="0.1497" style="stop-color:#FE986C"/>
		<stop  offset="0.2782" style="stop-color:#FE8877"/>
		<stop  offset="0.5037" style="stop-color:#FD7CAA"/>
		<stop  offset="0.6516" style="stop-color:#E76BB8"/>
		<stop  offset="0.8309" style="stop-color:#A668CA"/>
		<stop  offset="1" style="stop-color:#4F66D7"/>
	</linearGradient>
	<rect x="237.5" y="148.6" class="st12" width="196" height="134.7"/>
	<rect x="233.9" y="148.6" class="st13" width="199.6" height="135.9"/>
	<path class="st14" d="M362.4,148.6c0,0-57.4,53.8-128.6,55.1v-55.1H362.4z"/>
	<path class="st14" d="M433.5,219.6c0,0-39.5-4.1-78.5,18.6s-78,44-121.2,34v12.4h199.6V219.6z"/>
	<rect x="286" y="179.4" class="st15" width="95.5" height="16.4"/>
	<rect x="286" y="202.5" class="st15" width="95.5" height="16.4"/>
	<g class="st16">
		<path class="st9" d="M294.5,189.1v0.4h-3.3v-4.7h3.2v0.4h-2.7v1.7h2.4v0.4h-2.4v1.7L294.5,189.1z"/>
		<path class="st9" d="M295.2,187.5h1.8v0.4h-1.8V187.5z"/>
		<path class="st9" d="M303.8,187.5v2.1h-0.5v-2c0-0.7-0.4-1.1-1-1.1c-0.6,0-1.1,0.4-1.2,1c0,0.1,0,0.1,0,0.2v1.9h-0.5v-2
			c0-0.7-0.4-1.1-1-1.1c-0.6,0-1.2,0.5-1.2,1.1c0,0.1,0,0.1,0,0.2v1.9H298V186h0.5v0.6c0.3-0.4,0.8-0.7,1.3-0.7c0.5,0,1,0.3,1.2,0.7
			c0.3-0.5,0.8-0.8,1.4-0.7c0.7-0.1,1.4,0.5,1.4,1.2C303.8,187.3,303.8,187.4,303.8,187.5z"/>
		<path class="st9" d="M307.8,187.4v2.2h-0.5V189c-0.3,0.4-0.7,0.6-1.2,0.6c-0.8,0-1.3-0.4-1.3-1s0.3-1,1.4-1h1.1v-0.2
			c0-0.5-0.3-0.9-0.8-0.9c-0.1,0-0.2,0-0.2,0c-0.4,0-0.9,0.1-1.2,0.4l-0.2-0.4c0.4-0.3,0.9-0.5,1.4-0.5c0.7-0.1,1.3,0.4,1.4,1
			C307.8,187.2,307.8,187.3,307.8,187.4z M307.3,188.5v-0.6h-1.1c-0.7,0-0.9,0.3-0.9,0.6s0.3,0.7,0.9,0.7
			C306.7,189.2,307.1,188.9,307.3,188.5z"/>
		<path class="st9" d="M308.9,184.9c0-0.2,0.1-0.4,0.3-0.4c0.2,0,0.4,0.1,0.4,0.3s-0.1,0.4-0.3,0.4c0,0,0,0,0,0
			C309.1,185.3,308.9,185.1,308.9,184.9C308.9,184.9,308.9,184.9,308.9,184.9z M309,186h0.5v3.5H309V186z"/>
		<path class="st9" d="M310.9,184.6h0.5v5h-0.5V184.6z"/>
	</g>
	<g class="st16">
		<path class="st9" d="M294.9,209.7c0,1-0.7,1.6-1.9,1.6h-1.3v1.5h-0.5v-4.7h1.8C294.1,208.1,294.9,208.7,294.9,209.7z M294.4,209.7
			c0-0.8-0.5-1.2-1.4-1.2h-1.2v2.3h1.2C293.9,210.8,294.4,210.4,294.4,209.7z"/>
		<path class="st9" d="M298.5,210.6v2.2H298v-0.6c-0.3,0.4-0.7,0.6-1.2,0.6c-0.8,0-1.3-0.4-1.3-1s0.4-1,1.4-1h1.1v-0.2
			c0-0.6-0.3-0.9-1-0.9c-0.4,0-0.8,0.1-1.2,0.4l-0.2-0.4c0.4-0.3,0.9-0.5,1.4-0.5c0.7-0.1,1.3,0.4,1.4,1.1
			C298.5,210.4,298.5,210.5,298.5,210.6z M298,211.7v-0.6h-1.1c-0.7,0-0.9,0.3-0.9,0.6s0.3,0.7,0.9,0.7
			C297.4,212.4,297.8,212.2,298,211.7z"/>
		<path class="st9" d="M299.3,212.4l0.2-0.4c0.4,0.3,0.8,0.4,1.2,0.4c0.7,0,0.9-0.2,0.9-0.6c0-0.9-2.3-0.2-2.3-1.6
			c0-0.6,0.5-1,1.4-1c0.4,0,0.9,0.1,1.2,0.3l-0.2,0.4c-0.3-0.2-0.6-0.3-1-0.3c-0.6,0-0.9,0.2-0.9,0.6c0,1,2.3,0.2,2.3,1.6
			c0,0.6-0.5,1-1.5,1C300.2,212.8,299.7,212.7,299.3,212.4z"/>
		<path class="st9" d="M302.5,212.4l0.2-0.4c0.4,0.3,0.8,0.4,1.2,0.4c0.7,0,1-0.2,1-0.6c0-0.9-2.3-0.2-2.3-1.6c0-0.6,0.5-1,1.4-1
			c0.4,0,0.9,0.1,1.2,0.3l-0.2,0.4c-0.3-0.2-0.6-0.3-1-0.3c-0.6,0-0.9,0.2-0.9,0.6c0,1,2.3,0.2,2.3,1.6c0,0.6-0.5,1-1.5,1
			C303.5,212.8,303,212.7,302.5,212.4z"/>
		<path class="st9" d="M311.4,209.2l-1.3,3.5h-0.5l-1.1-2.9l-1.1,2.9H307l-1.3-3.5h0.5l1.1,3l1.1-3h0.4l1.1,3l1.1-3H311.4z"/>
		<path class="st9" d="M311.7,211c0-1,0.8-1.8,1.8-1.8c1,0,1.8,0.8,1.8,1.8c0,1-0.8,1.8-1.8,1.8c-1,0-1.8-0.7-1.8-1.7
			C311.7,211.1,311.7,211,311.7,211z M314.8,211c0-0.7-0.7-1.3-1.4-1.2c-0.7,0-1.3,0.7-1.2,1.4c0,0.7,0.6,1.2,1.3,1.2
			c0.7,0,1.3-0.6,1.3-1.3C314.8,211.1,314.8,211,314.8,211z"/>
		<path class="st9" d="M318,209.2v0.5h-0.1c-0.6,0-1.2,0.4-1.2,1.1c0,0.1,0,0.1,0,0.2v1.8h-0.5v-3.5h0.5v0.7
			C316.9,209.4,317.5,209.2,318,209.2z"/>
		<path class="st9" d="M322,207.8v5h-0.5v-0.7c-0.3,0.5-0.8,0.7-1.4,0.7c-1,0-1.8-0.8-1.8-1.8c0-1,0.8-1.8,1.8-1.8
			c0.5,0,1,0.2,1.3,0.7v-2.1L322,207.8z M321.5,211c0-0.7-0.7-1.3-1.4-1.2c-0.7,0-1.3,0.7-1.2,1.4c0,0.7,0.6,1.2,1.3,1.2
			c0.7,0,1.3-0.5,1.3-1.3C321.6,211.1,321.6,211,321.5,211L321.5,211z"/>
	</g>
	<rect x="287" y="235.6" class="st10" width="95.5" height="16.4"/>
	<g class="st17">
		<path d="M298.9,228.8l-0.6-0.9h-1v0.9H297V226h1c0.7,0,1.1,0.4,1.1,1c0,0.4-0.2,0.8-0.6,0.9l0.7,0.9L298.9,228.8z M298.9,227
			c0-0.4-0.3-0.7-0.9-0.7h-0.7v1.4h0.7C298.6,227.7,298.9,227.4,298.9,227L298.9,227z"/>
		<path d="M301.6,227.8h-1.8c0,0.4,0.4,0.8,0.8,0.7c0,0,0,0,0,0c0.2,0,0.5-0.1,0.6-0.3l0.2,0.2c-0.2,0.2-0.5,0.4-0.8,0.3
			c-0.5,0.1-1-0.3-1.1-0.9c0-0.1,0-0.1,0-0.2c0-0.6,0.4-1,0.9-1.1c0,0,0,0,0.1,0c0.6,0,1,0.4,1,1
			C301.6,227.7,301.6,227.7,301.6,227.8C301.6,227.7,301.6,227.8,301.6,227.8z M299.9,227.6h1.5c0-0.4-0.3-0.8-0.8-0.8
			S299.9,227.2,299.9,227.6z"/>
		<path d="M305.7,227.6v1.2h-0.3v-1.2c0-0.4-0.2-0.7-0.6-0.7c-0.4,0-0.7,0.3-0.7,0.6c0,0,0,0.1,0,0.1v1.1h-0.3v-1.2
			c0-0.4-0.2-0.7-0.6-0.7c-0.4,0-0.7,0.3-0.7,0.6c0,0,0,0.1,0,0.1v1.1h-0.3v-2.1h0.3v0.4c0.2-0.3,0.5-0.4,0.8-0.4
			c0.3,0,0.6,0.1,0.8,0.4c0.2-0.3,0.5-0.5,0.8-0.4c0.4,0,0.8,0.3,0.9,0.7C305.7,227.5,305.7,227.5,305.7,227.6z"/>
		<path d="M308.3,227.8h-1.8c0,0.4,0.4,0.8,0.8,0.7c0,0,0,0,0,0c0.2,0,0.5-0.1,0.6-0.3l0.2,0.2c-0.4,0.4-1.1,0.5-1.6,0
			c-0.2-0.2-0.3-0.5-0.3-0.8c0-0.6,0.5-1,1-1S308.3,227.2,308.3,227.8C308.3,227.7,308.3,227.8,308.3,227.8z M306.5,227.6h1.5
			c0-0.4-0.3-0.7-0.7-0.7c0,0,0,0,0,0C306.9,226.9,306.6,227.2,306.5,227.6z"/>
		<path d="M312.4,227.6v1.2h-0.3v-1.2c0-0.4-0.2-0.7-0.6-0.7c-0.4,0-0.7,0.3-0.7,0.6c0,0,0,0.1,0,0.1v1.1h-0.3v-1.2
			c0-0.4-0.2-0.7-0.6-0.7c-0.4,0-0.7,0.3-0.7,0.7c0,0,0,0.1,0,0.1v1.1h-0.3v-2.1h0.3v0.4c0.2-0.3,0.5-0.4,0.8-0.4
			c0.3,0,0.6,0.1,0.8,0.4c0.2-0.3,0.5-0.5,0.8-0.4c0.4,0,0.8,0.3,0.9,0.7C312.4,227.5,312.4,227.5,312.4,227.6z"/>
		<path d="M315.3,227.7c0,0.6-0.4,1-0.9,1.1c0,0,0,0-0.1,0c-0.3,0-0.6-0.2-0.8-0.4v0.4h-0.3v-3h0.3v1.3c0.2-0.3,0.5-0.4,0.8-0.4
			c0.6,0,1,0.4,1,1C315.3,227.7,315.3,227.7,315.3,227.7z M315,227.7c0-0.4-0.4-0.8-0.8-0.8c-0.4,0-0.8,0.4-0.8,0.8
			c0,0.4,0.4,0.8,0.8,0.8C314.6,228.6,315,228.2,315,227.7C315,227.8,315,227.8,315,227.7L315,227.7z"/>
		<path d="M317.7,227.8h-1.8c0,0.4,0.4,0.8,0.8,0.7c0,0,0,0,0,0c0.2,0,0.5-0.1,0.6-0.3l0.1,0.2c-0.2,0.2-0.5,0.4-0.8,0.3
			c-0.5,0.1-1-0.3-1.1-0.9c0-0.1,0-0.1,0-0.2c0-0.6,0.4-1,0.9-1.1c0,0,0,0,0.1,0c0.6,0,1,0.4,1,1
			C317.6,227.7,317.6,227.7,317.7,227.8C317.6,227.7,317.7,227.8,317.7,227.8z M315.9,227.6h1.5c0-0.4-0.3-0.7-0.7-0.7c0,0,0,0,0,0
			C316.3,226.9,315.9,227.2,315.9,227.6L315.9,227.6z"/>
		<path d="M319.3,226.7v0.3h-0.1c-0.4,0-0.7,0.3-0.7,0.6c0,0,0,0.1,0,0.1v1.1h-0.3v-2.1h0.3v0.4C318.7,226.8,319,226.7,319.3,226.7z
			"/>
		<path d="M324.4,227.6v1.2h-0.3v-1.2c0-0.4-0.2-0.7-0.6-0.7c-0.4,0-0.7,0.3-0.7,0.6c0,0,0,0.1,0,0.1v1.1h-0.3v-1.2
			c0-0.4-0.2-0.7-0.6-0.7c-0.4,0-0.7,0.3-0.7,0.6c0,0,0,0.1,0,0.1v1.1h-0.3v-2.1h0.3v0.4c0.2-0.3,0.5-0.4,0.8-0.4
			c0.3,0,0.6,0.1,0.8,0.4c0.2-0.3,0.5-0.5,0.8-0.4c0.4,0,0.8,0.3,0.9,0.7C324.4,227.5,324.4,227.5,324.4,227.6z"/>
		<path d="M327,227.8h-1.8c0,0.4,0.4,0.8,0.8,0.7c0,0,0,0,0,0c0.2,0,0.5-0.1,0.6-0.3l0.2,0.2c-0.2,0.2-0.5,0.4-0.8,0.3
			c-0.5,0.1-1-0.3-1.1-0.9c0-0.1,0-0.1,0-0.2c0-0.6,0.4-1,0.9-1.1c0,0,0,0,0.1,0c0.6,0,1,0.4,1,1C327,227.7,327,227.7,327,227.8
			C327,227.7,327,227.8,327,227.8z M325.2,227.6h1.5c0-0.4-0.3-0.7-0.7-0.7c0,0,0,0,0,0C325.6,226.9,325.3,227.2,325.2,227.6z"/>
	</g>
	
		<linearGradient id="SVGID_00000069367886069618522480000003860644623669831608_" gradientUnits="userSpaceOnUse" x1="285.97" y1="242.735" x2="381.44" y2="242.735">
		<stop  offset="0" style="stop-color:#FCC758"/>
		<stop  offset="9.201998e-02" style="stop-color:#FDB062"/>
		<stop  offset="0.1497" style="stop-color:#FE986C"/>
		<stop  offset="0.2782" style="stop-color:#FE8877"/>
		<stop  offset="0.5037" style="stop-color:#FD7CAA"/>
		<stop  offset="0.6516" style="stop-color:#E76BB8"/>
		<stop  offset="0.8309" style="stop-color:#A668CA"/>
		<stop  offset="1" style="stop-color:#4F66D7"/>
	</linearGradient>
	
		<rect x="286" y="234.6" style="fill:url(#SVGID_00000069367886069618522480000003860644623669831608_);" width="95.5" height="16.4"/>
	<g class="st17">
		<path d="M316.5,261.3v1.1h1.5v0.3h-1.5v1.2h-0.3V261h1.9v0.3L316.5,261.3z"/>
		<path d="M318.4,262.8c0-0.6,0.5-1.1,1.1-1.1c0.6,0,1.1,0.5,1.1,1.1c0,0.6-0.5,1.1-1.1,1.1c-0.6,0-1-0.4-1.1-0.9
			C318.4,262.9,318.4,262.8,318.4,262.8z M320.2,262.8c0-0.4-0.3-0.8-0.8-0.8c-0.4,0-0.8,0.3-0.8,0.8c0,0,0,0,0,0
			c0,0.4,0.3,0.8,0.8,0.8C319.9,263.6,320.2,263.2,320.2,262.8C320.2,262.8,320.2,262.8,320.2,262.8z"/>
		<path d="M322.1,261.7v0.3h-0.1c-0.4,0-0.7,0.3-0.7,0.8v1.1h-0.3v-2.1h0.3v0.4C321.5,261.9,321.8,261.7,322.1,261.7z"/>
		<path d="M324.6,261.7v1.8c0.1,0.5-0.3,1-0.8,1c-0.1,0-0.2,0-0.3,0c-0.4,0-0.7-0.1-1-0.3l0.1-0.2c0.2,0.2,0.5,0.3,0.8,0.3
			c0.5,0,0.8-0.2,0.8-0.8v-0.3c-0.2,0.3-0.5,0.4-0.8,0.4c-0.6,0-1-0.4-1.1-0.9c0,0,0,0,0-0.1c0-0.6,0.4-1,1-1c0,0,0,0,0.1,0
			c0.3,0,0.6,0.1,0.8,0.4v-0.4L324.6,261.7z M324.3,262.7c0-0.4-0.3-0.8-0.8-0.8s-0.8,0.3-0.8,0.8s0.3,0.8,0.8,0.8c0,0,0,0,0,0
			C323.9,263.5,324.3,263.2,324.3,262.7C324.3,262.8,324.3,262.8,324.3,262.7L324.3,262.7z"/>
		<path d="M325.2,262.8c0-0.6,0.5-1.1,1.1-1.1s1.1,0.5,1.1,1.1s-0.5,1.1-1.1,1.1S325.2,263.4,325.2,262.8z M327,262.8
			c0-0.4-0.3-0.8-0.7-0.9c-0.4,0-0.8,0.3-0.9,0.7c0,0.1,0,0.1,0,0.2c0,0.4,0.3,0.8,0.7,0.8c0,0,0,0,0.1,0
			C326.7,263.6,327,263.3,327,262.8C327,262.8,327,262.8,327,262.8L327,262.8z"/>
		<path d="M329,263.7c-0.1,0.1-0.3,0.2-0.4,0.1c-0.3,0-0.6-0.2-0.6-0.5c0,0,0-0.1,0-0.1V262h-0.4v-0.2h0.4v-0.5h0.3v0.5h0.6v0.2
			h-0.6v1.2c0,0.2,0.1,0.3,0.3,0.4c0,0,0.1,0,0.1,0c0.1,0,0.2,0,0.3-0.1L329,263.7z"/>
		<path d="M332.8,262c0,0.6-0.4,1-1.1,1h-0.8v0.9h-0.3V261h1C332.4,261,332.8,261.4,332.8,262z M332.5,262c0-0.5-0.3-0.7-0.9-0.7
			h-0.8v1.4h0.8C332.2,262.7,332.5,262.4,332.5,262z"/>
		<path d="M335,262.5v1.3h-0.3v-0.3c-0.2,0.2-0.4,0.4-0.7,0.4c-0.5,0-0.8-0.2-0.8-0.6s0.2-0.6,0.8-0.6h0.7v-0.1
			c0-0.4-0.2-0.5-0.6-0.5c-0.3,0-0.5,0.1-0.7,0.2l-0.1-0.2c0.2-0.2,0.5-0.3,0.9-0.3c0.4-0.1,0.8,0.2,0.8,0.6
			C335,262.4,335,262.5,335,262.5z M334.7,263.2v-0.4H334c-0.4,0-0.5,0.2-0.5,0.4s0.2,0.4,0.5,0.4
			C334.3,263.7,334.6,263.5,334.7,263.2L334.7,263.2z"/>
		<path d="M335.4,263.6l0.1-0.2c0.2,0.2,0.5,0.2,0.7,0.2c0.4,0,0.6-0.1,0.6-0.3c0-0.5-1.4-0.1-1.4-1c0-0.3,0.3-0.6,0.8-0.6
			c0.3,0,0.5,0.1,0.7,0.2l-0.1,0.2c-0.2-0.1-0.4-0.2-0.6-0.2c-0.4,0-0.5,0.1-0.5,0.4c0,0.6,1.4,0.1,1.4,1c0,0.4-0.3,0.6-0.9,0.6
			C336,263.9,335.7,263.8,335.4,263.6z"/>
		<path d="M337.4,263.6l0.1-0.2c0.2,0.2,0.5,0.2,0.8,0.2c0.4,0,0.6-0.1,0.6-0.3c0-0.5-1.4-0.1-1.4-1c0-0.3,0.3-0.6,0.8-0.6
			c0.3,0,0.5,0.1,0.7,0.2l-0.1,0.2c-0.2-0.1-0.4-0.2-0.6-0.2c-0.4,0-0.5,0.1-0.5,0.4c0,0.6,1.4,0.1,1.4,1c0,0.4-0.3,0.6-0.9,0.6
			C337.9,263.9,337.6,263.8,337.4,263.6z"/>
		<path d="M342.7,261.7l-0.8,2.1h-0.3l-0.7-1.7l-0.7,1.7H340l-0.8-2.1h0.3l0.7,1.8l0.7-1.8h0.2l0.7,1.8l0.7-1.8H342.7z"/>
		<path d="M342.9,262.8c0-0.6,0.5-1.1,1.1-1.1c0.6,0,1.1,0.5,1.1,1.1c0,0.6-0.5,1.1-1.1,1.1c-0.6,0-1-0.4-1.1-0.9
			C342.8,262.9,342.8,262.8,342.9,262.8z M344.7,262.8c0-0.4-0.3-0.8-0.7-0.9c-0.4,0-0.8,0.3-0.9,0.7c0,0.1,0,0.1,0,0.2
			c0,0.4,0.3,0.8,0.7,0.8c0,0,0,0,0.1,0C344.3,263.6,344.7,263.3,344.7,262.8C344.7,262.8,344.7,262.8,344.7,262.8z"/>
		<path d="M346.6,261.7v0.3h-0.1c-0.4,0-0.7,0.3-0.7,0.6c0,0,0,0.1,0,0.1v1.1h-0.3v-2.1h0.3v0.4C346,261.9,346.3,261.7,346.6,261.7z
			"/>
		<path d="M349,260.9v3h-0.3v-0.4c-0.2,0.3-0.5,0.5-0.8,0.4c-0.6,0-1.1-0.5-1.1-1.1s0.5-1.1,1.1-1.1c0.3,0,0.6,0.1,0.8,0.4v-1.3
			L349,260.9z M348.7,262.8c0-0.4-0.3-0.8-0.7-0.9c-0.4,0-0.8,0.3-0.9,0.7c0,0.1,0,0.1,0,0.2c0,0.4,0.3,0.8,0.7,0.9
			c0.4,0,0.8-0.3,0.9-0.7C348.7,262.9,348.7,262.8,348.7,262.8z"/>
		<path d="M351.1,261.8c0-0.3-0.2-0.5-0.6-0.5c-0.3,0-0.6,0.1-0.8,0.3l-0.2-0.2c0.3-0.3,0.6-0.4,1-0.4c0.6,0,0.9,0.3,0.9,0.7
			c0,0.7-0.7,0.7-0.7,1.3h-0.3C350.4,262.3,351.1,262.3,351.1,261.8z M350.3,263.6c0-0.1,0.1-0.2,0.2-0.2c0,0,0,0,0,0
			c0.1,0,0.2,0.1,0.2,0.2c0,0,0,0,0,0c0,0.1-0.1,0.2-0.2,0.2C350.4,263.9,350.3,263.8,350.3,263.6z"/>
	</g>
	<rect x="286.7" y="224.4" class="st15" width="4.9" height="4.9"/>
	<path class="st15" d="M323.2,239.7h0.8v4.9h3v0.7h-3.8L323.2,239.7z"/>
	<path class="st15" d="M327.4,243.1c0-1.2,0.9-2.2,2.2-2.2c1.2,0,2.2,0.9,2.2,2.2s-0.9,2.2-2.2,2.2c0,0,0,0,0,0
		c-1.2,0.1-2.2-0.8-2.2-2C327.4,243.3,327.4,243.2,327.4,243.1z M331,243.1c0-0.8-0.7-1.4-1.5-1.4c-0.8,0-1.4,0.7-1.4,1.5
		c0,0.8,0.7,1.4,1.4,1.4c0.8,0,1.4-0.6,1.4-1.3C331,243.3,331,243.2,331,243.1L331,243.1z"/>
	<path class="st15" d="M336.9,241v3.7c0.2,1-0.6,2-1.6,2.2c-0.2,0-0.4,0-0.6,0c-0.7,0-1.4-0.2-2-0.6l0.4-0.6c0.5,0.4,1,0.6,1.6,0.6
		c1,0,1.5-0.5,1.5-1.4v-0.3c-0.4,0.4-0.9,0.7-1.5,0.7c-1.1,0.1-2.1-0.8-2.2-1.9c-0.1-1.1,0.8-2.1,1.9-2.2c0.1,0,0.2,0,0.3,0
		c0.6,0,1.2,0.2,1.6,0.7V241H336.9z M336.1,243c0-0.8-0.6-1.5-1.4-1.5c-0.8,0-1.5,0.6-1.5,1.4s0.6,1.5,1.4,1.5c0,0,0.1,0,0.1,0
		c0.7,0.1,1.4-0.5,1.5-1.2C336.1,243.1,336.1,243,336.1,243z"/>
	<path class="st15" d="M338.2,239.7c0-0.3,0.2-0.5,0.5-0.5c0.3,0,0.5,0.2,0.5,0.5c0,0.3-0.2,0.5-0.5,0.5c0,0,0,0,0,0
		C338.5,240.2,338.2,240,338.2,239.7C338.2,239.7,338.2,239.7,338.2,239.7z M338.4,241h0.8v4.2h-0.8V241z"/>
	<path class="st15" d="M344.6,242.8v2.4h-0.8v-2.4c0-0.8-0.4-1.2-1.1-1.2c-0.7-0.1-1.3,0.5-1.4,1.2c0,0.1,0,0.2,0,0.3v2.2h-0.8V241
		h0.7v0.6c0.4-0.5,0.9-0.7,1.5-0.7c0.9-0.1,1.7,0.6,1.8,1.5C344.6,242.6,344.6,242.7,344.6,242.8z"/>
	<polygon class="st9" points="288.7,228.2 287.6,227 288,226.7 288.7,227.4 290.3,225.8 290.6,226.1 	"/>
	<g class="st16">
		<path class="st9" d="M372.4,213.7L372.4,213.7c-1.8-0.1-3.4-1-4.4-2.6l-0.1-0.1l0.1-0.1c1.3-2.4,4.4-3.3,6.8-2
			c0.8,0.5,1.5,1.1,2,2l0.1,0.1l-0.1,0.1C375.8,212.7,374.2,213.7,372.4,213.7z M368.5,211c1.2,2.1,4,2.9,6.1,1.6
			c0.7-0.4,1.2-0.9,1.6-1.6c-1.2-2.1-4-2.9-6.1-1.6C369.5,209.8,368.9,210.3,368.5,211z"/>
		<path class="st9" d="M372.4,212.9c-1,0-1.9-0.8-1.9-1.9s0.8-1.9,1.9-1.9c1,0,1.9,0.8,1.9,1.9c0,0,0,0,0,0
			C374.2,212,373.4,212.9,372.4,212.9C372.4,212.9,372.4,212.9,372.4,212.9z M372.4,209.7c-0.8,0-1.4,0.6-1.4,1.4s0.6,1.4,1.4,1.4
			c0.8,0,1.4-0.6,1.4-1.4v0C373.7,210.3,373.1,209.7,372.4,209.7L372.4,209.7z"/>
		
			<rect x="368.2" y="210.8" transform="matrix(0.7071 -0.7071 0.7071 0.7071 -40.1452 325.1234)" class="st9" width="8.3" height="0.5"/>
	</g>
	<g class="st17">
		<path d="M322,171.9l0.2-0.4c0.4,0.4,1,0.6,1.6,0.6c0.9,0,1.3-0.4,1.3-0.9c0-1.3-3-0.5-3-2.3c0-0.7,0.6-1.4,1.8-1.4
			c0.5,0,1.1,0.1,1.5,0.4l-0.2,0.4c-0.4-0.3-0.9-0.4-1.3-0.4c-0.9,0-1.3,0.4-1.3,0.9c0,1.4,3,0.5,3,2.3c0,0.7-0.6,1.3-1.8,1.3
			C323.2,172.6,322.6,172.3,322,171.9z"/>
		<path d="M326.6,167.7c0-0.2,0.2-0.4,0.4-0.4c0,0,0,0,0,0c0.2,0,0.4,0.1,0.4,0.3c0,0.2-0.1,0.4-0.3,0.4c0,0-0.1,0-0.1,0
			C326.8,168,326.6,167.9,326.6,167.7C326.6,167.7,326.6,167.7,326.6,167.7z M326.7,168.8h0.5v3.7h-0.5V168.8z"/>
		<path d="M332,168.8v3.2c0.1,0.9-0.5,1.7-1.4,1.8c-0.2,0-0.3,0-0.5,0c-0.6,0-1.2-0.2-1.7-0.6l0.2-0.4c0.4,0.3,0.9,0.5,1.5,0.5
			c0.9,0,1.4-0.4,1.4-1.3v-0.5c-0.3,0.5-0.9,0.7-1.4,0.7c-1,0.1-1.8-0.7-1.9-1.7c-0.1-1,0.7-1.8,1.7-1.9c0.1,0,0.2,0,0.3,0
			c0.6,0,1.1,0.2,1.5,0.7v-0.7L332,168.8z M331.5,170.6c0-0.8-0.6-1.4-1.3-1.4c-0.8,0-1.4,0.6-1.4,1.3s0.6,1.4,1.3,1.4c0,0,0,0,0,0
			c0.7,0.1,1.4-0.5,1.4-1.2C331.5,170.7,331.5,170.6,331.5,170.6L331.5,170.6z"/>
		<path d="M336.8,170.4v2.1h-0.5v-2.1c0.1-0.5-0.3-1.1-0.8-1.2c-0.1,0-0.2,0-0.3,0c-0.7,0-1.2,0.5-1.3,1.1c0,0.1,0,0.1,0,0.2v1.9
			h-0.5v-3.7h0.5v0.7c0.3-0.5,0.8-0.7,1.4-0.7c0.8-0.1,1.5,0.5,1.5,1.3C336.8,170.2,336.8,170.3,336.8,170.4z"/>
		<path d="M339.9,167.7c0-0.2,0.2-0.3,0.4-0.3c0.2,0,0.3,0.1,0.3,0.3c0,0.2-0.2,0.4-0.3,0.4c0,0,0,0,0,0
			C340,168,339.9,167.9,339.9,167.7C339.9,167.7,339.9,167.7,339.9,167.7z M340,168.8h0.5v3.7H340L340,168.8z"/>
		<path d="M345.2,170.4v2.1h-0.5v-2.1c0.1-0.5-0.3-1.1-0.8-1.2c-0.1,0-0.2,0-0.3,0c-0.7,0-1.3,0.5-1.3,1.1c0,0.1,0,0.1,0,0.2v1.9
			h-0.5v-3.7h0.5v0.7c0.3-0.5,0.8-0.7,1.4-0.7c0.8-0.1,1.4,0.5,1.5,1.3C345.3,170.2,345.3,170.3,345.2,170.4z"/>
	</g>
</g>
<g id="freepik--speech-bubble--inject-33">
	<path class="st19" d="M181.3,148.3h-28.7c-4.9,0-8.9,4-8.9,8.8c0,0,0,0,0,0v25c0,4.9,4,8.9,8.8,8.9c0,0,0,0,0,0h8.4l-7,13.9
		l13-13.9h14.4c4.9,0,8.8-4,8.8-8.8c0,0,0,0,0,0v-25C190.2,152.2,186.2,148.3,181.3,148.3C181.3,148.3,181.3,148.3,181.3,148.3z"/>
	<path class="st20" d="M181.3,148.3h-28.7c-4.9,0-8.9,4-8.9,8.8c0,0,0,0,0,0v25c0,4.9,4,8.9,8.8,8.9c0,0,0,0,0,0h8.4l-7,13.9
		l13-13.9h14.4c4.9,0,8.8-4,8.8-8.8c0,0,0,0,0,0v-25C190.2,152.2,186.2,148.3,181.3,148.3C181.3,148.3,181.3,148.3,181.3,148.3z"/>
	<path class="st15" d="M165.4,175.9c-0.4,0-0.8-0.2-1-0.5l-5.6-6.6c-0.5-0.6-0.4-1.4,0.2-1.8c0.6-0.5,1.4-0.4,1.8,0.1l4.6,5.4
		l7.6-8.9c0.5-0.6,1.3-0.6,1.8-0.1c0.6,0.5,0.6,1.3,0.2,1.8l-8.6,10.1C166.2,175.7,165.8,175.9,165.4,175.9z"/>
	<circle class="st21" cx="166.9" cy="169.5" r="14.3"/>
</g>
<g id="freepik--Character--inject-33">
	<path class="st9" d="M205,417.1h58.2c0.6,0,1.1-0.5,1.1-1.1v-3.7c0-0.6-0.5-1.1-1.1-1.1H208V292.3h54.3c1.2,0,2.1-0.9,2.1-2.1v-3.9
		H205c-1.7,0-3,1.3-3,3v124.8C202,415.8,203.3,417.1,205,417.1z"/>
	<g class="st22">
		<path class="st15" d="M202,289.3v124.8c0,1.7,1.3,3,3,3h58.2c0.6,0,1.1-0.5,1.1-1.1v0v-3.7c0-0.6-0.5-1.1-1.1-1.1H208V292.3h54.3
			c1.2,0,2.1-0.9,2.1-2.1v-3.9H205C203.3,286.3,202,287.6,202,289.3z"/>
	</g>
	<path class="st10" d="M202,289.3v31.8c2,0.5,4,1,6,1.5v-30.3h54.3c1.2,0,2.1-0.9,2.1-2.1v-3.9H205C203.3,286.3,202,287.6,202,289.3
		z"/>
	<path class="st9" d="M96.8,400.4l23.9-2.1V367h8.4v31.3l24,2c2.1,0.2,3.7,2,3.7,4.1v3.2H93v-3.2C93,402.3,94.6,400.6,96.8,400.4z"
		/>
	<path class="st14" d="M96.8,400.4l23.9-2.1V367h8.4v31.3l24,2c2.1,0.2,3.7,2,3.7,4.1v3.2H93v-3.2C93,402.3,94.6,400.6,96.8,400.4z"
		/>
	<path class="st9" d="M148.9,411.6c0,3,2.5,5.5,5.5,5.5c3,0,5.5-2.5,5.5-5.5c0-3-2.5-5.5-5.5-5.5l0,0
		C151.4,406.1,148.9,408.6,148.9,411.6C148.9,411.6,148.9,411.6,148.9,411.6z"/>
	<path class="st9" d="M100.8,411.6c0,3-2.5,5.5-5.5,5.5s-5.5-2.5-5.5-5.5c0-3,2.5-5.5,5.5-5.5c0,0,0,0,0,0
		C98.3,406.1,100.8,408.6,100.8,411.6C100.8,411.6,100.8,411.6,100.8,411.6z"/>
	<path class="st9" d="M126.7,373.4h-3.8c-2,0-3.7-1.7-3.7-3.7v-27l0,0h11.3l0,0v27C130.4,371.7,128.8,373.4,126.7,373.4z"/>
	<path class="st7" d="M126.7,373.4h-3.8c-2,0-3.7-1.7-3.7-3.7v-27l0,0h11.3l0,0v27C130.4,371.7,128.8,373.4,126.7,373.4z"/>
	<path class="st9" d="M100.1,280.7c0,0,2.6,51.8,13.7,60.8h-11.9c0,0-10.6-17.7-11.4-60.8H100.1z"/>
	<path class="st14" d="M100.1,280.7c0,0,2.6,51.8,13.7,60.8h-11.9c0,0-10.6-17.7-11.4-60.8H100.1z"/>
	<path class="st6" d="M99.1,337.1H152c2.5,0,4.5,2,4.5,4.5v4.1l0,0H94.6l0,0v-4.1C94.6,339.1,96.6,337.1,99.1,337.1
		C99.1,337.1,99.1,337.1,99.1,337.1z"/>
	<path class="st9" d="M94,341.4h63c1,0,1.8,0.8,1.8,1.8v0.7c0,1-0.8,1.8-1.8,1.8H94c-1,0-1.8-0.8-1.8-1.8v-0.7
		C92.2,342.2,93.1,341.4,94,341.4z"/>
	<path class="st13" d="M94,341.4h63c1,0,1.8,0.8,1.8,1.8v0.7c0,1-0.8,1.8-1.8,1.8H94c-1,0-1.8-0.8-1.8-1.8v-0.7
		C92.2,342.2,93.1,341.4,94,341.4z"/>
	<path class="st6" d="M88.3,292h19.1c5.6,0,9.6-5,9-11.2l-0.8-8.3c-0.6-6.2-5.7-11.2-11.2-11.2H85.3c-5.6,0-9.6,5-9,11.2l0.8,8.3
		C77.7,287,82.7,292,88.3,292z"/>
	<g id="freepik--group--inject-33">
		<path class="st23" d="M151.5,247.3c1.2,3.8,2.6,7.7,4.1,11.3c1.3,3,3.1,6.8,5.3,8.8c1.9,1.7,6.5,2.4,9.5,2.8
			c4,0.5,8.3,0.7,12.4,0.9l0.7,5.6c-4.4,1.2-8.9,1.9-13.5,2.1c-5.1,0.2-11,0-15.4-3.1c-6.4-5-9.2-11.7-12-18.7
			c-0.8-2.2-1.5-4.3-2.1-6.6L151.5,247.3L151.5,247.3z"/>
		<path class="st9" d="M146.6,242c3.1,1.1,6,5.6,13.9,23.8c0,0,1.3,2.2,7.7,3.6l-0.6,10.2c0,0-9.2-0.4-11.3-1.9
			s-14.9-22.5-14.9-22.5L146.6,242z"/>
		<path class="st7" d="M168.2,269.4l-0.6,10.2c0,0-7.4-0.3-10.4-1.5c-0.3-0.1-0.6-0.2-0.9-0.4c-1.2-0.9-6-8.2-9.9-14.3
			c-2.8-4.4-5-8.1-5-8.1l5.1-13.3c3.1,1.1,6,5.6,13.9,23.8C160.5,265.8,161.8,268,168.2,269.4z"/>
		<path class="st10" d="M157.2,278.2c-0.3-0.1-0.6-0.2-0.9-0.4c-1.2-0.9-6-8.2-9.9-14.3c1-3.4,2.2-6.8,3.6-10.2
			C150,253.2,157.3,267.9,157.2,278.2z"/>
		<path class="st24" d="M180.5,271.5l7.2-2.6l-0.9,9.6c0,0-6.6,0.8-7.4-2.6L180.5,271.5z"/>
		<polygon class="st24" points="193.6,270.9 192.6,278.8 186.8,278.6 187.7,269 		"/>
		<polygon class="st9" points="168.2,269 171.9,270.1 170.6,280 166.9,280.6 		"/>
		<path class="st25" d="M151.7,305.1c0,0,48.4,19.1,59.6,27.1s39.6,61.8,39.6,61.8l-11.7,9c0,0-33.8-49.1-38-52.5s-58-19.9-58-19.9
			L151.7,305.1z"/>
		
			<linearGradient id="SVGID_00000040560688124249579190000015500701740693238152_" gradientUnits="userSpaceOnUse" x1="143.27" y1="354" x2="251" y2="354">
			<stop  offset="0" style="stop-color:#FCC758"/>
			<stop  offset="9.201998e-02" style="stop-color:#FDB062"/>
			<stop  offset="0.1497" style="stop-color:#FE986C"/>
			<stop  offset="0.2782" style="stop-color:#FE8877"/>
			<stop  offset="0.5037" style="stop-color:#FD7CAA"/>
			<stop  offset="0.6516" style="stop-color:#E76BB8"/>
			<stop  offset="0.8309" style="stop-color:#A668CA"/>
			<stop  offset="1" style="stop-color:#4F66D7"/>
		</linearGradient>
		<path style="opacity:0.4;fill:url(#SVGID_00000040560688124249579190000015500701740693238152_);enable-background:new    ;" d="
			M251,393.9l-11.7,9c0,0-7.9-11.5-16.5-23.7c-9.2-13.1-19.3-27-21.4-28.8c-3-2.4-32.7-11.9-48.4-16.9c-5.8-1.8-9.7-3-9.7-3
			l8.5-25.5c0,0,48.4,19.1,59.6,27.1S251,393.9,251,393.9z"/>
		<polygon class="st24" points="253.1,413.2 258.8,407.5 249.6,393.2 243.9,398.9 		"/>
		<polygon class="st10" points="243.9,398.9 249.6,393.2 254.8,401.4 249,406.8 		"/>
		<path class="st25" d="M259.8,406.9C259.8,406.9,259.8,406.9,259.8,406.9C259.9,406.9,259.9,406.9,259.8,406.9
			c0.7-0.2,1.4-0.6,2-0.9c0.5-0.2,0.8-0.7,1-1.2c0.1-0.4-0.1-0.8-0.4-1c-0.2-0.2-0.4-0.3-0.6-0.2c-0.5,0.1-1.1,0.9-1.5,1.7
			c0.1-0.7-0.1-1.4-0.5-2c-0.2-0.2-0.6-0.3-0.9-0.1c-0.3,0.1-0.4,0.4-0.5,0.6c-0.2,1.1,1.2,2.8,1.3,2.9l0.1-0.1l0,0l-0.1,0.1
			c0,0-0.1,0.1-0.1,0.1C259.7,406.9,259.7,406.9,259.8,406.9z M259.8,406.2c0,0.1,0,0.1-0.1,0.2c-0.4-0.6-1.1-1.7-1-2.4
			c0-0.2,0.1-0.3,0.2-0.4h0.1c0.2-0.1,0.4,0,0.5,0C260,404.4,260,405.3,259.8,406.2L259.8,406.2z M260.2,406.4
			c0.4-1,1.2-2.3,1.7-2.4c0.1,0,0.2,0,0.3,0.1c0.2,0.1,0.3,0.4,0.3,0.6C262.4,405.2,261.5,405.8,260.2,406.4L260.2,406.4z"/>
		<path class="st9" d="M258.7,406.4l-7.5,5c-0.3,0.2-0.4,0.5-0.2,0.8c0,0,0,0,0,0l0,0l3.6,6.1c0.4,0.6,1.3,0.8,1.9,0.4
			c2.6-1.8,3.7-2.8,7-5c3-1.8,5.9-3.9,8.6-6.1c2.5-2.3,0.1-4.7-1.1-3.9c-3,1.8-8.1,2.5-10.9,2.3C259.6,406,259.1,406.1,258.7,406.4z
			"/>
		<polygon class="st25" points="239.8,406.9 254.5,397.2 251.1,390.3 235.2,401.3 		"/>
		<polygon class="st7" points="239.8,406.9 254.5,397.2 251.1,390.3 235.2,401.3 		"/>
		<path class="st10" d="M222.8,379.3c-9.2-13.1-19.3-27-21.4-28.8c-3-2.4-32.7-11.9-48.4-16.9l-1.8-19l5.7-1l0.6,1.5
			c0,0,35.9,8.1,46,13.2C210.1,331.5,218.8,363.6,222.8,379.3z"/>
		<path class="st25" d="M220.6,408.8L220.6,408.8C220.6,408.8,220.7,408.8,220.6,408.8c0.8,0,1.5-0.1,2.2-0.2c0.5-0.1,1-0.3,1.4-0.8
			c0.2-0.3,0.2-0.7,0-1.1c-0.1-0.2-0.3-0.4-0.6-0.4c-0.6-0.1-1.3,0.5-2,1.1c0.3-0.6,0.4-1.3,0.2-2c-0.1-0.3-0.5-0.5-0.8-0.4
			c-0.3,0-0.5,0.2-0.7,0.4c-0.6,1,0.2,3.1,0.3,3.2l0.1-0.1l0,0l-0.1,0.1c0,0-0.1,0.1-0.1,0.1L220.6,408.8z M220.9,408.1l-0.1,0.1
			c-0.3-0.8-0.4-1.7-0.1-2.5c0.1-0.1,0.2-0.2,0.4-0.3h0.1c0.3,0,0.4,0.1,0.4,0.2C221.6,406.5,221.4,407.4,220.9,408.1z M221.1,408.4
			c0.8-0.8,1.9-1.8,2.4-1.7c0.1,0,0.2,0.1,0.3,0.2c0.1,0.2,0.1,0.5,0,0.7C223.6,408,222.6,408.4,221.1,408.4z"/>
		<polygon class="st24" points="212.3,412.5 219.5,409 215.2,391.9 208,395.4 		"/>
		<polygon class="st10" points="208,395.4 215.2,391.9 217.6,401.7 210.3,404.8 		"/>
		<path class="st9" d="M219.8,407.9l-8.7,2.2c-0.3,0.1-0.5,0.4-0.4,0.7c0,0,0,0,0,0l0,0l1.4,7c0.2,0.7,1,1.2,1.7,1
			c3-0.8,4.4-1.4,8.2-2.4c3.4-0.7,6.8-1.7,10.1-2.9c3.1-1.3,1.7-4.4,0.2-4c-3.4,0.7-8.5-0.3-11.1-1.5
			C220.7,407.9,220.2,407.8,219.8,407.9z"/>
		<path class="st25" d="M218.7,395.1c0,0-12.2-61.2-14.7-64.9c-4.1-6-52.9-15.7-52.9-15.7l5.7-1l-6.6-17.6l-43.5,1.7
			c0,0,0.9,28.7,5.3,36.4s69.8,11.2,74.1,13s17.2,49.8,17.2,49.8L218.7,395.1z"/>
		
			<linearGradient id="SVGID_00000049921665564937374100000007165606031597325502_" gradientUnits="userSpaceOnUse" x1="106.76" y1="346.45" x2="218.7" y2="346.45">
			<stop  offset="0" style="stop-color:#FCC758"/>
			<stop  offset="9.201998e-02" style="stop-color:#FDB062"/>
			<stop  offset="0.1497" style="stop-color:#FE986C"/>
			<stop  offset="0.2782" style="stop-color:#FE8877"/>
			<stop  offset="0.5037" style="stop-color:#FD7CAA"/>
			<stop  offset="0.6516" style="stop-color:#E76BB8"/>
			<stop  offset="0.8309" style="stop-color:#A668CA"/>
			<stop  offset="1" style="stop-color:#4F66D7"/>
		</linearGradient>
		<path style="opacity:0.4;fill:url(#SVGID_00000049921665564937374100000007165606031597325502_);enable-background:new    ;" d="
			M218.7,395.1c0,0-12.2-61.2-14.7-64.9c-4.1-6-52.9-15.7-52.9-15.7l5.7-1l-6.6-17.6l-43.5,1.7c0,0,0.9,28.7,5.3,36.4
			s69.8,11.2,74.1,13s17.2,49.8,17.2,49.8L218.7,395.1z"/>
		<polygon class="st25" points="203.6,402.3 220.7,398 219.8,390.4 201.2,395.5 		"/>
		<polygon class="st7" points="203.6,402.3 220.7,398 219.8,390.4 201.2,395.5 		"/>
		<polygon class="st9" points="120.5,298.4 107.9,298.2 107.7,302 121.1,302.3 		"/>
		<polygon class="st9" points="122.5,298.3 123,302.3 151.1,301.9 150.2,298.3 		"/>
		<path class="st15" d="M136,299l0.4,2.6c0.1,0.7,0.7,1.1,1.4,1.1l4.5-0.1c0.6,0,1-0.4,1-1c0-0.1,0-0.1,0-0.2l-0.4-2.6
			c-0.1-0.7-0.7-1.1-1.4-1.1l-4.5,0.1c-0.6,0-1,0.4-1,1C136,298.9,136,298.9,136,299z"/>
		<path class="st9" d="M107.9,297.6h41.3c1,0,1.9-0.8,2-1.8c5.1-40-4.6-53.8-4.6-53.8c-3.7-1.1-7.5-1.8-11.3-2.3
			c-5.6-0.4-11.2-0.6-16.8-0.4c-3.8,0.1-7.6,0.5-11.4,1.1c-2,0.9-4.1,9.8-2,37.5c0.5,7.3,0.6,13.5,0.6,17.2
			C105.6,296.5,106.6,297.6,107.9,297.6z"/>
		<polygon class="st9" points="140.8,256.2 148.7,256.2 149.3,265.7 145.1,268.4 140.8,266.3 		"/>
		<path class="st7" d="M151.2,295.8c-0.1,1-1,1.8-2,1.8h-41.3c-1.3,0-2.3-1-2.3-2.3c0,0,0,0,0,0c0-3.7,0-10-0.6-17.2
			c-0.3-4-0.5-7.6-0.6-10.8c-0.3-5.9-0.3-11.8,0.1-17.7c0.5-6,1.5-8.5,2.6-9c3.8-0.7,7.6-1,11.4-1.1c5.6-0.2,11.2-0.1,16.8,0.4
			c3.8,0.5,7.6,1.3,11.3,2.3C146.6,242,156.3,255.9,151.2,295.8z"/>
		<path class="st24" d="M118.8,238.9l13.3,4.6l0.5-3.8c-1.3-2.3-1.6-3.7-0.5-6.4l-8.9-10.2C123.5,228.3,122.5,235.5,118.8,238.9z"/>
		<path class="st15" d="M127.2,245.5l2.6,1.1l2.3,1.4c0,0,3.1,17.5,2.2,32.2l2.6,2.1l2.7-2.2c0,0-3.4-27.1-4.6-32.3l0.5-1.3l1.2-2.6
			l-2.3-1.2l-3.6,0.8h-2.5L127.2,245.5z"/>
		<path class="st10" d="M126.9,227.2l5.3,6.1c-0.4,0.9-0.7,1.9-0.9,2.9c-2.2-0.7-5-3.6-4.9-6.1C126.3,229.1,126.5,228.2,126.9,227.2
			z"/>
		<path class="st9" d="M119.6,236.5c3.8,2.5,7.8,4.6,12,6.2c0.5-1.9,0.5-3.8,0-5.7l5.9,2.9c0,0,0.5,4.6-0.9,7l-4.3-3.2l-4.9,4
			c0,0-9.2-3.6-10.6-8.4L119.6,236.5z"/>
		<path class="st10" d="M149.6,272L136,283c-19.6,4.4-28.2-7.9-31.7-15.9c-0.3-5.9-0.3-11.8,0.1-17.7c4.7-0.2,10.6-0.2,12.1,1
			c2.8,2.1,12.3,16.9,13.8,18S149.6,272,149.6,272z"/>
		<path class="st24" d="M157.4,271.5l7.2-2.6l-0.9,9.6c0,0-6.6,0.8-7.4-2.6L157.4,271.5z"/>
		<polygon class="st24" points="170.5,270.8 169.4,278.7 163.7,278.5 164.6,268.9 		"/>
		<path class="st23" d="M115.7,252.1c2.1,4.2,4.5,8.2,7,12.2c1.6,2.6,3.5,4.9,5.8,6.8c0.2,0.2,0.4,0.3,0.6,0.3
			c2.5,0.7,5.1,1,7.7,0.9c7.3,0.1,14.6-0.6,21.9-1.2l1.2,5.5c-4.9,1.6-9.9,2.9-14.9,3.8c-5.5,1-10.5,1.8-16.3,1.2
			c-1.9-0.2-3.7-0.7-5.4-1.6c-6.5-3.8-10.4-9.9-14.2-16c-1.3-2.4-2.6-4.6-3.7-7.1L115.7,252.1L115.7,252.1z"/>
		<path class="st9" d="M107,240.5c-12.9,4.6,3.8,36.8,10.9,40.4s18.9,2.1,18.9,2.1l0.8-11.2c0,0-6.2-0.8-8-1.2
			c-2.9-0.7-8.8-13.6-12.8-20.7C114.6,245.9,111.2,242.6,107,240.5z"/>
		<path class="st7" d="M107,240.5c-12.9,4.6,3.8,36.8,10.9,40.4s18.9,2.1,18.9,2.1l0.8-11.2c0,0-6.2-0.8-8-1.2
			c-2.9-0.7-8.8-13.6-12.8-20.7C114.6,245.9,111.2,242.6,107,240.5z"/>
		<polygon class="st9" points="136,271 134.9,284 138.6,283.3 139.6,271.7 		"/>
		<path class="st9" d="M146.2,212.5c0.5,3-0.8,8.8-4.5,6.4S145.3,207.4,146.2,212.5z"/>
		<path class="st24" d="M125,213.6c-1.4,7.3-2.7,11.5,0,16.1c4,6.9,13.8,5.9,17.4-0.9c3.2-6.1,5.1-17-1.3-21.7
			c-4.6-3.3-11-2.3-14.4,2.3C125.9,210.7,125.3,212.1,125,213.6z"/>
		<path class="st9" d="M121.5,205.5l8.3-0.4l0.2,4.8l-0.5-0.3c0,0-0.5,7-4.5,9.3C119.6,214.9,118.1,208.2,121.5,205.5z"/>
		<path class="st24" d="M120.6,218.9c0.1,1.9,1,3.6,2.3,4.9c1.9,1.6,3.9,0.2,4.3-2.1c0.3-2.1-0.2-5.5-2.5-6.2
			c-1.7-0.5-3.5,0.5-4,2.2C120.6,218,120.6,218.5,120.6,218.9z"/>
		<path class="st9" d="M135.4,218.4c-0.2,0.6,0,1.1,0.4,1.2s0.8-0.3,1-0.9s0-1.1-0.4-1.2S135.6,217.8,135.4,218.4z"/>
		<path class="st9" d="M142.1,220.1c-0.1,0.6,0,1.1,0.4,1.2s0.8-0.3,1-0.9s0-1.1-0.4-1.2S142.2,219.5,142.1,220.1z"/>
		<path class="st28" d="M139.9,219.8c0.3,1.9,0.8,3.8,1.6,5.6c-1,0.3-2,0.3-2.9-0.2L139.9,219.8z"/>
		<path class="st9" d="M134.8,226.6c0.2,0.1,0.5,0.2,0.8,0.2c0.1,0,0.2,0,0.2-0.1c0-0.1,0-0.2-0.1-0.2c0,0,0,0,0,0
			c-1.5-0.3-2.7-1.4-3.3-2.8c0-0.1-0.1-0.1-0.2-0.1c-0.1,0-0.1,0.1-0.1,0.2c0,0,0,0,0,0C132.5,225.1,133.5,226.1,134.8,226.6z"/>
		<path class="st9" d="M133.9,215.7c0.1,0,0.3,0,0.4-0.1c0.7-0.6,1.6-0.8,2.5-0.6c0.2,0.1,0.4,0,0.4-0.2c0,0,0,0,0,0
			c0.1-0.2,0-0.4-0.2-0.4c0,0,0,0,0,0c-1.1-0.3-2.3,0-3.2,0.7c-0.2,0.1-0.2,0.3-0.1,0.5c0,0,0,0,0,0
			C133.8,215.7,133.9,215.7,133.9,215.7z"/>
		<path class="st9" d="M145.5,218.5c0.2,0.1,0.4,0,0.5-0.2c0-0.1,0-0.1,0-0.2c-0.2-1.1-1-2.1-2-2.6c-0.2-0.1-0.4,0-0.5,0.2
			c-0.1,0.2,0,0.4,0.2,0.5c0.8,0.4,1.4,1.1,1.5,2C145.3,218.3,145.4,218.4,145.5,218.5z"/>
		<path class="st9" d="M126.9,211.4c0.2,0.1,0.3,0.3,0.5,0.4c1,0.6,2.2,0.6,3.2,0.1c2.1-1,2.7-6.9,8.6-3.9c1.3-0.3,2.7,0.2,3.5,1.2
			c1.5,1.9,0.5,8.6,3.7,7.7s2.7-1.9,2.7-1.9s-0.9,0.6-1.4,0.1c1-0.8,1.3-2.2,0.9-3.4c0,0-0.8,0.9-1.3,0.8c0.5-2.7,0.2-5.6-0.9-8.1
			c-1.9-4.7-13.3-3.6-13.3-3.6s-1.4-2.4-6.6-0.7s-7.5,7.9-6.7,10.6"/>
	</g>
	<polygon class="st9" points="195.2,277.7 194.5,275 164.1,275 150.2,276.3 149.6,277.7 	"/>
	<polygon class="st29" points="195.2,277.7 194.5,275 164.1,275 150.2,276.3 149.6,277.7 	"/>
	<polygon class="st10" points="164.1,275 164.1,277.7 195.2,277.7 194.5,275 	"/>
	<path class="st9" d="M174.4,261.6c-0.2,1.3,0.8,2.5,2.1,2.7c0.1,0,0.2,0,0.3,0h46.5c1.5,0,2.7-1.2,2.9-2.7l2.8-29.7
		c0-0.3,0-0.6-0.1-0.9c-0.3-1.1-1.2-1.8-2.4-1.8h-46.5c-1.5,0-2.7,1.2-2.9,2.7L174.4,261.6z"/>
	<path class="st29" d="M174.4,261.6c-0.2,1.3,0.8,2.5,2.1,2.7c0.1,0,0.2,0,0.3,0h46.5c1.5,0,2.7-1.2,2.9-2.7l2.8-29.7
		c0-0.3,0-0.6-0.1-0.9c-0.3-1.1-1.2-1.8-2.4-1.8h-46.5c-1.5,0-2.7,1.2-2.9,2.7L174.4,261.6z"/>
	<path class="st30" d="M177,264.3h46.3c1.5,0,2.7-1.2,2.9-2.7l2.8-29.7c0-0.3,0-0.6-0.1-0.9h-46.3c-1.5,0-2.7,1.2-2.9,2.7l-2.8,29.7
		C176.9,263.7,176.9,264,177,264.3z"/>
	<polygon class="st9" points="208.9,246 199.3,246 201.8,273.5 186.6,275.8 186.6,277.7 218.6,277.7 218.6,275.8 212.1,273.5 	"/>
	<polygon class="st29" points="208.9,246 199.3,246 201.8,273.5 186.6,275.8 186.6,277.7 218.6,277.7 218.6,275.8 212.1,273.5 	"/>
	<polygon class="st7" points="199.3,246 206.4,277.3 212.1,277.1 208.9,246 	"/>
	<path class="st9" d="M119.9,417.1h58.2c0.6,0,1.1-0.5,1.1-1.1c0,0,0,0,0,0v-3.7c0-0.6-0.5-1.1-1.1-1.1h0h-55.2V292.3h54.3
		c1.1,0,2.1-0.9,2.1-2.1v-3.9h-59.3c-1.7,0-3,1.3-3,3v124.8C116.9,415.8,118.3,417.1,119.9,417.1z"/>
	<g class="st16">
		<path class="st15" d="M119.9,417.1h58.2c0.6,0,1.1-0.5,1.1-1.1c0,0,0,0,0,0v-3.7c0-0.6-0.5-1.1-1.1-1.1h0h-55.2V292.3h54.3
			c1.1,0,2.1-0.9,2.1-2.1v-3.9h-59.3c-1.7,0-3,1.3-3,3v124.8C116.9,415.8,118.3,417.1,119.9,417.1z"/>
	</g>
	
		<linearGradient id="SVGID_00000039839568026888096150000007669407984808533400_" gradientUnits="userSpaceOnUse" x1="110.54" y1="283.97" x2="267.84" y2="283.97">
		<stop  offset="0" style="stop-color:#FCC758"/>
		<stop  offset="9.201998e-02" style="stop-color:#FDB062"/>
		<stop  offset="0.1497" style="stop-color:#FE986C"/>
		<stop  offset="0.2782" style="stop-color:#FE8877"/>
		<stop  offset="0.5037" style="stop-color:#FD7CAA"/>
		<stop  offset="0.6516" style="stop-color:#E76BB8"/>
		<stop  offset="0.8309" style="stop-color:#A668CA"/>
		<stop  offset="1" style="stop-color:#4F66D7"/>
	</linearGradient>
	<path style="fill:url(#SVGID_00000039839568026888096150000007669407984808533400_);" d="M265.9,287.3H112.5
		c-1.1,0-1.9-0.9-1.9-1.9l0,0v-4.7l0,0h157.3l0,0v4.7C267.8,286.4,267,287.3,265.9,287.3z"/>
	<rect x="110.5" y="280.6" class="st10" width="157.3" height="3.3"/>
	
		<linearGradient id="SVGID_00000036954554535107256400000010244911842470924454_" gradientUnits="userSpaceOnUse" x1="105.37" y1="279.615" x2="273.03" y2="279.615">
		<stop  offset="0" style="stop-color:#FCC758"/>
		<stop  offset="9.201998e-02" style="stop-color:#FDB062"/>
		<stop  offset="0.1497" style="stop-color:#FE986C"/>
		<stop  offset="0.2782" style="stop-color:#FE8877"/>
		<stop  offset="0.5037" style="stop-color:#FD7CAA"/>
		<stop  offset="0.6516" style="stop-color:#E76BB8"/>
		<stop  offset="0.8309" style="stop-color:#A668CA"/>
		<stop  offset="1" style="stop-color:#4F66D7"/>
	</linearGradient>
	<path style="fill:url(#SVGID_00000036954554535107256400000010244911842470924454_);" d="M107.2,281.5h163.9c1,0,1.9-0.8,1.9-1.9
		l0,0c0-1-0.8-1.9-1.9-1.9l0,0H107.2c-1,0-1.9,0.8-1.9,1.9l0,0l0,0C105.4,280.7,106.2,281.5,107.2,281.5z"/>
</g>
</svg>
